<?xml version="1.0" standalone="no"?><!DOCTYPE svg PUBLIC "-//W3C//DTD SVG 1.1//EN" "http://www.w3.org/Graphics/SVG/1.1/DTD/svg11.dtd"><svg class="icon" width="16px" height="16.00px" viewBox="0 0 1024 1024" version="1.1" xmlns="http://www.w3.org/2000/svg"><path d="M1019.38524 509.704185c0 281.53618-228.187303 509.704185-509.646292 509.704186C228.231714 1019.408371 0.005816 791.24519 0.005816 509.704185 0.005816 228.250021 228.231714 0 509.738948 0c281.458989 0 509.646292 228.254845 509.646292 509.704185z"  /><path d="M600.453267 15.052315v49.923511L423.747775 182.774662h176.705492V333.659645H423.072351l177.380916 118.247511v57.797029h-87.187639l-214.591975-143.011464v143.00664H147.793495V366.692721L9.220534 459.047357a503.528877 503.528877 0 0 0-2.537666 50.64718c0 277.811697 225.239558 502.998186 503.036782 502.998186 277.753804 0 502.949942-225.186489 502.949942-502.998186 0-246.775947-177.781346-451.907156-412.211501-494.642222z m-325.506308 856.891616L223.248047 817.601215l-51.655492 54.342716 10.247153-74.287034-74.668165-6.484074 64.464433-38.286913-41.504829-62.467107 70.195891 26.558652 22.921009-71.377884 23.012674 71.377884 70.128349-26.558652-41.504829 62.467107 64.469258 38.286913-74.644044 6.484074 10.247153 74.287034z m539.577241-370.576412l-25.280169-26.597247-25.28017 26.597247 5.147699-36.35713-36.603178-3.193792 31.571266-18.694782-20.27238-30.514709 34.20542 13.001919 11.231343-34.929089 11.260289 34.929089 34.219894-13.001919-20.248258 30.514709 31.600212 18.694782-36.632124 3.193792 5.080156 36.35713zM509.710001 6.705999a501.27103 501.27103 0 0 0-211.036348 46.377533v97.058484l215.108192-143.334703c-1.399093-0.024122-2.720995-0.101314-4.071844-0.101314z" fill="#004990" /><path d="M376.603153 214.196369h223.850114v-31.421707H423.747775zM267.242297 345.749741v163.94962h31.43618V366.692721zM423.072351 333.659645h177.380916v-31.436181H375.927729zM298.678477 150.14684V53.088356a546.958665 546.958665 0 0 0-31.43618 15.838702V171.123592l31.43618-20.976752zM179.248973 130.665671c-8.693677 7.559929-17.232971 15.356256-25.391132 23.53854l25.391132 16.919381v-40.457921zM51.506925 302.223464a500.171053 500.171053 0 0 0-7.709487 17.850502l26.766103-17.850502h-19.056616zM147.78867 366.692721v143.00664h31.460303V345.749741z" fill="#FFFFFF" /><path d="M375.927729 302.223464H267.242297v43.526277l31.43618 20.938156 214.591976 143.011464h87.177989v-1.437689L337.983352 333.659645h59.726813l202.747926 134.877424V451.907156L423.072351 333.659645zM179.248973 171.123592l-25.391132-16.919381c-18.62724 18.559697-35.614163 38.668046-51.095855 59.992158h76.486987V171.123592zM267.242297 171.123592v43.072777H376.603153l47.144622-31.421707 176.705492-117.798836V15.052315c-3.261335-0.607882-6.450303-1.225413-9.730936-1.751279L335.884712 182.774662h-37.211059v-15.00407l240.788792-160.104525c-8.539294-0.506568-17.126833-0.786387-25.6806-0.858754l-215.108192 143.334703-31.436181 20.981576zM179.248973 345.749741v-43.526277H70.563541l-26.766103 17.850502a497.879434 497.879434 0 0 0-23.167056 72.07743l87.949903-58.491751h39.208385v13.653221L11.912583 437.689473a482.37362 482.37362 0 0 0-2.696873 21.357884l138.57296-92.35946 31.460303-20.94298z" fill="#FFFFFF" /><path d="M179.248973 302.223464V509.699361h87.993324V302.223464H600.453267V214.196369H267.242297V68.927058a503.007835 503.007835 0 0 0-87.993324 61.738613v83.530698H102.761986a499.727202 499.727202 0 0 0-51.255061 88.027095H179.248973z" fill="#EF3E42" /><path d="M337.978528 333.659645l262.474739 174.602027v-39.724603L397.700516 333.659645zM298.678477 182.774662h37.211059l254.827971-169.468802a494.979934 494.979934 0 0 0-51.250237-5.644618l-240.788793 160.114175v14.999245zM147.78867 333.659645h-39.208385L20.630382 392.146572c-3.5701 14.955826-6.493723 30.114279-8.717799 45.547725L147.78867 347.312866v-13.653221z" fill="#EF3E42" /><path d="M274.879417 752.88591l41.504828-62.467107-70.128349 26.558652-23.012673-71.377884-22.916185 71.377884-70.195891-26.558652 41.500004 62.467107-64.464433 38.286913 74.668166 6.484074-10.247153 74.287034 51.655492-54.342716 51.708561 54.342716-10.247153-74.287034 74.644043-6.484074zM814.475956 443.126639l20.248258-30.519533-34.219894 13.001919-11.260289-34.929089-11.231343 34.929089-34.20542-13.001919 20.27238 30.514709-31.571266 18.694782 36.603178 3.193792-5.147699 36.35713 25.28017-26.597247 25.280169 26.597247-5.080156-36.35713 36.627299-3.193792z" fill="#FFFFFF" /></svg>