<?xml version="1.0" standalone="no"?><!DOCTYPE svg PUBLIC "-//W3C//DTD SVG 1.1//EN" "http://www.w3.org/Graphics/SVG/1.1/DTD/svg11.dtd"><svg class="icon" width="20px" height="20.00px" viewBox="0 0 1024 1024" version="1.1" xmlns="http://www.w3.org/2000/svg"><path d="M1024 160v704c0 88-72 160-160 160H160c-88 0-160-72-160-160V160C0 72 72 0 160 0h704c88 0 160 72 160 160z" fill="#F2CD5E" /><path d="M1024 541.52V864c0 88-72 160-160 160H591.6L277.6 713.28S192 320 384 256s332.08 24.08 332.08 24.08L1024 541.52z" fill="#E6BA4D" /><path d="M512 202.88C341.6 202.88 202.88 341.6 202.88 512S341.6 821.12 512 821.12 821.12 682.4 821.12 512 682.4 202.88 512 202.88z m0 562.8c-139.84 0-253.68-113.76-253.68-253.68S372.16 258.32 512 258.32 765.68 372.16 765.68 512 651.84 765.68 512 765.68z m111.12-320.32c15.28 0 27.76-12.4 27.76-27.76s-12.4-27.76-27.76-27.76H539.68v-16.56c0-15.28-12.4-27.76-27.76-27.76-15.28 0-27.76 12.4-27.76 27.76v16.56H400.72c-15.28 0-27.76 12.4-27.76 27.76 0 0.8 0.16 1.6 0.24 2.4-0.08 0.72-0.24 1.44-0.24 2.16v81.92c0 1.04 0.16 2 0.32 2.96-0.08 0.96-0.32 1.92-0.32 2.96 0 15.28 12.4 27.76 27.76 27.76h83.44v40.8H400.88c-15.28 0-27.76 12.4-27.76 27.76 0 15.28 12.4 27.76 27.76 27.76h83.44v16.56c0 15.28 12.4 27.76 27.76 27.76 15.28 0 27.76-12.4 27.76-27.76v-16.56h83.44c15.28 0 27.76-12.4 27.76-27.76v-0.4-95.92c0-0.48-0.16-0.96-0.16-1.52-0.48-8.96-5.12-16.8-12.08-21.52h-0.08c-1.44-0.96-3.04-1.84-4.64-2.56-0.24-0.08-0.56-0.16-0.88-0.24a28 28 0 0 0-4.4-1.36c-0.96-0.16-1.92-0.24-2.96-0.32-0.88-0.08-1.76-0.24-2.64-0.24H539.76v-36.96l83.36 0.08z m-27.68 92.48v40.8h-55.68v-40.8h55.68z m-111.2-55.52h-55.68v-36.96h55.68v36.96z" fill="#FFFFFF" /></svg>