<?xml version="1.0" standalone="no"?><!DOCTYPE svg PUBLIC "-//W3C//DTD SVG 1.1//EN" "http://www.w3.org/Graphics/SVG/1.1/DTD/svg11.dtd"><svg class="icon" width="16px" height="16.00px" viewBox="0 0 1024 1024" version="1.1" xmlns="http://www.w3.org/2000/svg"><path d="M512 512m-512 0a512 512 0 1 0 1024 0 512 512 0 1 0-1024 0Z" fill="#FB542B" /><path d="M512 172s-17.68 0.068-44.212 9.08c-26.528 9.008-55.268 20.264-68.532 20.264-13.264 0-111.64-19.14-111.64-19.14S171.04 325.784 171.04 356.468c0 30.688 14.66 38.784 29.404 54.736l87.416 94.572c8.272 8.948 25.484 22.512 15.36 46.928-10.124 24.416-25.068 55.488-8.456 87 16.616 31.512 45.084 52.548 63.32 49.072 18.24-3.48 61.072-26.28 76.824-36.696 15.748-10.416 65.664-52.364 65.664-68.416 0-16.048-51.6-44.86-61.136-51.404-9.532-6.548-53.016-31.892-53.904-41.84-0.892-9.944-0.552-12.86 12.28-37.436 12.832-24.576 35.94-57.38 32.096-79.2-3.848-21.82-41.124-33.168-67.72-43.4-26.596-10.232-77.8-29.56-84.196-32.56-6.4-3.008-4.744-5.872 14.632-7.744 19.38-1.872 74.364-9.308 99.16-2.268 24.788 7.04 67.152 17.752 70.584 23.432 3.428 5.68 6.452 5.872 2.928 25.468-3.52 19.596-21.66 113.612-23.42 130.312-1.76 16.7-5.208 27.744 12.468 31.86 17.672 4.12 47.432 11.264 57.656 11.264 10.224 0 39.98-7.148 57.656-11.264 17.676-4.12 14.232-15.16 12.468-31.86-1.76-16.7-19.9-110.72-23.42-130.312-3.524-19.596-0.504-19.788 2.928-25.468s45.788-16.392 70.58-23.432c24.792-7.04 79.788 0.396 99.16 2.268 19.384 1.872 21.036 4.736 14.636 7.74-6.396 3.004-57.6 22.332-84.196 32.56-26.6 10.24-63.872 21.584-67.72 43.4-3.844 21.824 19.264 54.628 32.096 79.204 12.832 24.576 13.168 27.492 12.28 37.44-0.892 9.944-44.368 35.288-53.904 41.836-9.532 6.544-61.144 35.36-61.144 51.404 0 16.052 49.92 58 65.672 68.416 15.752 10.416 58.584 33.216 76.824 36.696 18.236 3.476 46.704-17.56 63.32-49.072 16.612-31.512 1.672-62.584-8.456-87-10.124-24.416 7.092-37.98 15.36-46.928l87.416-94.572c14.744-15.952 29.404-24.048 29.404-54.736 0-30.684-116.576-174.264-116.576-174.264s-98.376 19.14-111.64 19.14c-13.264 0-42.004-11.256-68.532-20.264-25.264-8.58-42.508-9.06-44.096-9.08z m-0.008 496.4c-6.06 0-44.88 13.96-76.032 30.38-31.152 16.428-53.736 28.048-60.952 32.652-7.216 4.6-2.816 13.272 3.76 18.008 6.572 4.732 94.908 74.428 103.48 82.132 8.576 7.704 21.176 20.428 29.744 20.428 8.568 0 21.168-12.724 29.744-20.428 8.572-7.704 96.908-77.4 103.48-82.132 6.576-4.736 10.976-13.408 3.76-18.008-7.216-4.6-29.792-16.224-60.944-32.652-31.156-16.42-69.98-30.38-76.04-30.38z" fill="#FB542B" /><path d="M512 172s-17.68 0.068-44.212 9.08c-26.528 9.008-55.268 20.264-68.532 20.264-13.264 0-111.64-19.14-111.64-19.14S171.04 325.784 171.04 356.468c0 30.688 14.66 38.784 29.404 54.736l87.416 94.572c8.272 8.948 25.484 22.512 15.36 46.928-10.124 24.416-25.068 55.488-8.456 87 16.616 31.512 45.084 52.548 63.32 49.072 18.24-3.48 61.072-26.28 76.824-36.696 15.748-10.416 65.664-52.364 65.664-68.416 0-16.048-51.6-44.86-61.136-51.404-9.532-6.548-53.016-31.892-53.904-41.84-0.892-9.944-0.552-12.86 12.28-37.436 12.832-24.576 35.94-57.38 32.096-79.2-3.848-21.82-41.124-33.168-67.72-43.4-26.596-10.232-77.8-29.56-84.196-32.56-6.4-3.008-4.744-5.872 14.632-7.744 19.38-1.872 74.364-9.308 99.16-2.268 24.788 7.04 67.152 17.752 70.584 23.432 3.428 5.68 6.452 5.872 2.928 25.468-3.52 19.596-21.66 113.612-23.42 130.312-1.76 16.7-5.208 27.744 12.468 31.86 17.672 4.12 47.432 11.264 57.656 11.264 10.224 0 39.98-7.148 57.656-11.264 17.676-4.12 14.232-15.16 12.468-31.86-1.76-16.7-19.9-110.72-23.42-130.312-3.524-19.596-0.504-19.788 2.928-25.468s45.788-16.392 70.58-23.432c24.792-7.04 79.788 0.396 99.16 2.268 19.384 1.872 21.036 4.736 14.636 7.74-6.396 3.004-57.6 22.332-84.196 32.56-26.6 10.24-63.872 21.584-67.72 43.4-3.844 21.824 19.264 54.628 32.096 79.204 12.832 24.576 13.168 27.492 12.28 37.44-0.892 9.944-44.368 35.288-53.904 41.836-9.532 6.544-61.144 35.36-61.144 51.404 0 16.052 49.92 58 65.672 68.416 15.752 10.416 58.584 33.216 76.824 36.696 18.236 3.476 46.704-17.56 63.32-49.072 16.612-31.512 1.672-62.584-8.456-87-10.124-24.416 7.092-37.98 15.36-46.928l87.416-94.572c14.744-15.952 29.404-24.048 29.404-54.736 0-30.684-116.576-174.264-116.576-174.264s-98.376 19.14-111.64 19.14c-13.264 0-42.004-11.256-68.532-20.264-25.264-8.58-42.508-9.06-44.096-9.08z m-0.008 496.4c-6.06 0-44.88 13.96-76.032 30.38-31.152 16.428-53.736 28.048-60.952 32.652-7.216 4.6-2.816 13.272 3.76 18.008 6.572 4.732 94.908 74.428 103.48 82.132 8.576 7.704 21.176 20.428 29.744 20.428 8.568 0 21.168-12.724 29.744-20.428 8.572-7.704 96.908-77.4 103.48-82.132 6.576-4.736 10.976-13.408 3.76-18.008-7.216-4.6-29.792-16.224-60.944-32.652-31.156-16.42-69.98-30.38-76.04-30.38z" fill="#FFFFFF" /><path d="M512 172s-17.68 0.068-44.212 9.08c-26.528 9.008-55.268 20.264-68.532 20.264-13.264 0-111.64-19.14-111.64-19.14S171.04 325.784 171.04 356.468c0 30.688 14.66 38.784 29.404 54.736l87.416 94.572c8.272 8.948 25.484 22.512 15.36 46.928-10.124 24.416-25.068 55.488-8.456 87 16.616 31.512 45.084 52.548 63.32 49.072 18.24-3.48 61.072-26.28 76.824-36.696 15.748-10.416 65.664-52.364 65.664-68.416 0-16.048-51.6-44.86-61.136-51.404-9.532-6.548-53.016-31.892-53.904-41.84-0.892-9.944-0.552-12.86 12.28-37.436 12.832-24.576 35.94-57.38 32.096-79.2-3.848-21.82-41.124-33.168-67.72-43.4-26.596-10.232-77.8-29.56-84.196-32.56-6.4-3.008-4.744-5.872 14.632-7.744 19.38-1.872 74.364-9.308 99.16-2.268 24.788 7.04 67.152 17.752 70.584 23.432 3.428 5.68 6.452 5.872 2.928 25.468-3.52 19.596-21.66 113.612-23.42 130.312-1.76 16.7-5.208 27.744 12.468 31.86 17.672 4.12 47.432 11.264 57.656 11.264 10.224 0 39.98-7.148 57.656-11.264 17.676-4.12 14.232-15.16 12.468-31.86-1.76-16.7-19.9-110.72-23.42-130.312-3.524-19.596-0.504-19.788 2.928-25.468s45.788-16.392 70.58-23.432c24.792-7.04 79.788 0.396 99.16 2.268 19.384 1.872 21.036 4.736 14.636 7.74-6.396 3.004-57.6 22.332-84.196 32.56-26.6 10.24-63.872 21.584-67.72 43.4-3.844 21.824 19.264 54.628 32.096 79.204 12.832 24.576 13.168 27.492 12.28 37.44-0.892 9.944-44.368 35.288-53.904 41.836-9.532 6.544-61.144 35.36-61.144 51.404 0 16.052 49.92 58 65.672 68.416 15.752 10.416 58.584 33.216 76.824 36.696 18.236 3.476 46.704-17.56 63.32-49.072 16.612-31.512 1.672-62.584-8.456-87-10.124-24.416 7.092-37.98 15.36-46.928l87.416-94.572c14.744-15.952 29.404-24.048 29.404-54.736 0-30.684-116.576-174.264-116.576-174.264s-98.376 19.14-111.64 19.14c-13.264 0-42.004-11.256-68.532-20.264-25.264-8.58-42.508-9.06-44.096-9.08z m-0.008 496.4c-6.06 0-44.88 13.96-76.032 30.38-31.152 16.428-53.736 28.048-60.952 32.652-7.216 4.6-2.816 13.272 3.76 18.008 6.572 4.732 94.908 74.428 103.48 82.132 8.576 7.704 21.176 20.428 29.744 20.428 8.568 0 21.168-12.724 29.744-20.428 8.572-7.704 96.908-77.4 103.48-82.132 6.576-4.736 10.976-13.408 3.76-18.008-7.216-4.6-29.792-16.224-60.944-32.652-31.156-16.42-69.98-30.38-76.04-30.38z" fill="#FFFFFF" /></svg>