<?xml version="1.0" standalone="no"?><!DOCTYPE svg PUBLIC "-//W3C//DTD SVG 1.1//EN" "http://www.w3.org/Graphics/SVG/1.1/DTD/svg11.dtd"><svg class="icon" width="16px" height="16.00px" viewBox="0 0 1024 1024" version="1.1" xmlns="http://www.w3.org/2000/svg"><path d="M51.2 179.1232h921.6v665.7536h-921.6z" fill="#02842D" /><path d="M512.064 278.6048L160.5504 504.6912l351.4496 240.64 351.4496-240.64z" fill="#E5C505" /><path d="M512 511.9872m-140.6592 0a140.6592 140.6592 0 1 0 281.3184 0 140.6592 140.6592 0 1 0-281.3184 0Z" fill="#023689" /><path d="M390.6176 442.1248A138.9952 138.9952 0 0 0 380.0576 464.6528a504.0256 504.0256 0 0 1 269.888 73.9968 139.8784 139.8784 0 0 0 2.432-24.32 525.8368 525.8368 0 0 0-261.76-72.2048zM398.8864 474.6752l1.6 4.6848 4.9792 0.0896-3.9808 2.9568 1.4464 4.7232-4.0448-2.8416-4.0448 2.8416 1.4464-4.7232-3.9424-2.9056 4.9408-0.0896zM561.8176 451.1104l1.6 4.6592 4.9408 0.0896-3.9424 2.9952 1.4464 4.7232-4.032-2.8416-4.0832 2.8416 1.5104-4.7232-3.9424-2.9952 4.9408-0.0896zM422.7328 546.0608l1.6 4.6848 4.9408 0.0896-3.9424 2.9568 1.4464 4.7232-4.032-2.8416-4.0832 2.8416 1.4848-4.7232-3.9808-2.9568 4.9664-0.0896zM461.312 589.3632l1.6384 4.6848h4.9408l-3.9808 2.9952 1.4848 4.7232-4.0704-2.8672-4.032 2.8672 1.4464-4.7232-3.9424-2.9952h4.9408zM527.5776 563.52l1.6 4.6592 4.9408 0.0896-3.9424 2.9568 1.4592 4.7488-4.0448-2.8672-4.0448 2.8672 1.4464-4.7488-3.9424-2.9568 4.9408-0.0896zM552.5376 598.4384l1.6128 4.6848h4.9408l-3.968 3.0976 1.4464 4.7232-4.0448-2.8416-4.0448 2.8416 1.4592-4.7232-3.9424-2.9952h4.9408zM584.0256 586.3424l1.6 4.6848 4.9664 0.0896-3.9808 2.9568 1.4848 4.7232-4.0704-2.8416-4.0448 2.8416 1.4464-4.7232-3.9424-2.9568 4.9408-0.0896zM613.4912 571.8784l1.6 4.6848h4.9408l-3.9424 2.9952 1.4464 4.7232-4.0448-2.8416-4.0448 2.8416 1.4592-4.7232-3.9808-2.9952h4.9664zM613.4912 552.32l1.6 4.6848 4.9408 0.0896-3.9424 2.9568 1.4464 4.7232-4.0448-2.8416-4.0448 2.8416 1.4592-4.7232-3.9808-2.9568 4.9664-0.0896zM402.4576 564.3776l1.3824 4.0064h4.2624l-3.392 2.56 1.28 4.0704-3.4816-2.432-3.456 2.432 1.28-4.0704-3.392-2.56h4.2624zM462.2464 512l1.3824 4.0448h4.2624l-3.392 2.56 1.28 4.0704-3.4816-2.4704-3.4816 2.4704 1.28-4.0704-3.4304-2.56h4.2624zM441.2928 567.1552l1.3824 4.0448h4.2624l-3.392 2.56 1.28 4.0704-3.4816-2.4704-3.4816 2.4704 1.28-4.0704-3.392-2.56h4.2496zM500.8 522.7392l1.3824 4.0064h4.2624l-3.4304 2.56 1.28 4.0704-3.4816-2.432-3.4816 2.432 1.28-4.0704-3.4304-2.56h4.2624zM518.2976 512l1.3824 4.0448h4.2624l-3.392 2.56 1.28 4.0704-3.4816-2.4704-3.456 2.4704 1.28-4.0704-3.392-2.56h4.2624zM534.1184 522.7392l1.3824 4.0064h4.2624l-3.392 2.56 1.28 4.0704-3.4816-2.432-3.4816 2.432 1.28-4.0704-3.4304-2.56h4.2624zM441.2928 542.2848l0.768 2.2528h2.4064l-1.9072 1.4208 0.704 2.2784-1.9712-1.3568-1.9456 1.3568 0.704-2.2784-1.9072-1.4208h2.368zM438.1568 583.3472l0.768 2.2528h2.3808l-1.9072 1.4464 0.704 2.2784-1.9328-1.3824-1.984 1.3824 0.704-2.2784-1.9072-1.4464h2.4064zM515.1744 542.2848l0.768 2.2528h2.3808l-1.9072 1.4208 0.7168 2.2784-1.9456-1.3568-1.9712 1.3568 0.704-2.2784-1.9072-1.4208h2.3808z" fill="#E5E5E5" /><path d="M571.5712 505.984l0.7808 2.2528h2.368l-1.9072 1.4464 0.704 2.2784-1.9456-1.3824-1.9712 1.3824 0.704-2.2784-1.9072-1.4464h2.3808zM527.5776 623.7952l0.768 2.2528h2.4064l-1.9456 1.4208 0.704 2.2784-1.9456-1.3568-1.9456 1.3568 0.6784-2.2784-1.9072-1.4208h2.4064zM542.8224 589.3888l0.768 2.2528h2.4064l-1.9072 1.4208 0.6784 2.3168-1.9456-1.3824-1.9712 1.3824 0.704-2.3168-1.9072-1.4208h2.3936zM563.9424 589.3632l0.768 2.2528h2.4064l-1.9072 1.4464 0.6784 2.2784-1.9456-1.3568-1.9712 1.3568 0.704-2.2784-1.9072-1.4464h2.4064zM584.0256 572.096l0.768 2.2528h2.4064l-1.9072 1.4464 0.704 2.2784-1.9712-1.3824-1.9456 1.3824 0.704-2.2784-1.9072-1.4464h2.3808zM598.0928 583.3472l0.7808 2.2528h2.368l-1.9072 1.4464 0.704 2.2784-1.9456-1.3824-1.9712 1.3824 0.704-2.2784-1.9072-1.4464h2.4064zM627.3664 558.5536l0.768 2.2528h2.4064l-1.9072 1.4208 0.704 2.2784-1.9712-1.3568-1.9456 1.3568 0.704-2.2784-1.9072-1.4208h2.3808zM584.0256 604.7872l0.768 2.2784h2.4064l-1.9072 1.4208 0.704 2.3168-1.9712-1.3824-1.9456 1.3824 0.704-2.3168-1.9072-1.4208h2.3808z" fill="#E5E5E5" /><path d="M403.2256 448.4224a7.2448 7.2448 0 0 0-2.7008-1.4464 10.0608 10.0608 0 0 0-3.584-0.4608 12.0448 12.0448 0 0 0-3.7376 0.5504 9.3824 9.3824 0 0 0-3.0208 1.4848 7.5904 7.5904 0 0 0-2.1248 2.3424 8.2944 8.2944 0 0 0-0.96 3.0208 7.1424 7.1424 0 0 0 0.3712 3.0208 6.0032 6.0032 0 0 0 1.7024 2.2272 6.8352 6.8352 0 0 0 2.6496 1.3824 11.52 11.52 0 0 0 3.52 0.4352 12.5952 12.5952 0 0 0 3.5968-0.5248 10.0224 10.0224 0 0 0 2.9696-1.4464 9.536 9.536 0 0 0 2.1248-2.2912 7.68 7.68 0 0 0 0.9856-3.0208 6.4 6.4 0 0 0-0.2432-2.9952 5.6576 5.6576 0 0 0-1.5488-2.2784z m-1.9072 7.808a5.12 5.12 0 0 1-1.3824 1.7792 6.6688 6.6688 0 0 1-2.0096 1.1136 10.3552 10.3552 0 0 1-2.432 0.3712 7.808 7.808 0 0 1-2.3552-0.3328 4.0704 4.0704 0 0 1-1.7536-1.0496 4.0064 4.0064 0 0 1-1.1136-1.728 6.72 6.72 0 0 1-0.1792-2.56 7.5776 7.5776 0 0 1 0.704-2.56 4.9792 4.9792 0 0 1 1.4592-1.8304 5.9392 5.9392 0 0 1 2.0352-1.1008 6.7712 6.7712 0 0 1 2.496-0.3712 7.4368 7.4368 0 0 1 2.4064 0.3072 4.4672 4.4672 0 0 1 1.7536 1.0752 3.84 3.84 0 0 1 1.024 1.8176 6.5408 6.5408 0 0 1 0.1152 2.56 6.9504 6.9504 0 0 1-0.768 2.5088zM422.3616 453.2096a4.1216 4.1216 0 0 0 0.8576-0.9344 2.4832 2.4832 0 0 0 0.4352-1.1136 2.7904 2.7904 0 0 0-0.1536-1.6896 3.1104 3.1104 0 0 0-1.2032-1.28 6.5536 6.5536 0 0 0-2.1248-0.8704 15.7696 15.7696 0 0 0-3.0336-0.3968c-2.2144-0.064-4.4416-0.128-6.656-0.1536q-1.0624 7.0272-1.9328 14.0032c0.9472 0 1.8944 0.064 2.8928 0.064 0.2432-2.0096 0.5504-4.0192 0.832-6.016l4.7104 0.1536 3.0592 6.1056c0.9856 0.064 1.9712 0.0896 2.9568 0.128l-3.1744-6.5792c0.4608-0.1792 0.8704-0.3712 1.3696-0.576a13.504 13.504 0 0 0 1.1648-0.8448z m-1.9456-1.28a2.2272 2.2272 0 0 1-0.5248 0.6784 3.1872 3.1872 0 0 1-0.6784 0.4864 7.3216 7.3216 0 0 1-0.6784 0.3712l-6.08-0.1792c0.2432-1.664 0.4992-3.3024 0.768-4.9408 1.1136 0 2.2272 0 3.3408 0.064 0.768 0 1.408 0.128 1.9328 0.1792a6.3232 6.3232 0 0 1 1.3568 0.4992 1.9712 1.9712 0 0 1 0.7808 0.8064 1.664 1.664 0 0 1 0.1152 1.1392 1.8176 1.8176 0 0 1-0.3328 0.9088zM442.4064 450.304a7.872 7.872 0 0 0-2.7776-1.6384 12.6976 12.6976 0 0 0-3.84-0.768 520.1152 520.1152 0 0 0-6.2976-0.4352c-0.896 4.6592-1.728 9.2928-2.56 13.952 2.0352 0.0896 4.0704 0.2048 6.1056 0.3584a16.5376 16.5376 0 0 0 3.9808-0.2048 11.392 11.392 0 0 0 3.2768-1.2032 8.96 8.96 0 0 0 2.3296-2.0352 6.592 6.592 0 0 0 1.28-2.816 5.5552 5.5552 0 0 0-0.0512-2.8928 6.08 6.08 0 0 0-1.4464-2.3168z m-2.3936 7.3984a4.5696 4.5696 0 0 1-1.7408 1.5744 7.68 7.68 0 0 1-2.3424 0.8704 12.8768 12.8768 0 0 1-2.9056 0.0896l-2.9568-0.1792c0.6912-3.6096 1.3568-7.2576 2.0736-10.8928l2.9824 0.1792a11.2128 11.2128 0 0 1 2.8416 0.5248 5.4784 5.4784 0 0 1 1.9712 1.1392 3.84 3.84 0 0 1 1.1136 1.792 5.12 5.12 0 0 1 0 2.496 5.3632 5.3632 0 0 1-1.0368 2.4448zM447.0016 462.8608c3.84 0.3712 7.68 0.768 11.4432 1.28l0.384-1.4848a291.6096 291.6096 0 0 0-8.704-0.96c0.3328-1.6 0.704-3.2384 1.0752-4.8384 2.56 0.2816 5.248 0.5504 7.8336 0.8576l0.3712-1.4464c-2.56-0.3328-5.2096-0.6144-7.872-0.896 0.3712-1.472 0.7168-2.9952 1.088-4.5056 2.9568 0.3456 5.9264 0.6784 8.8448 1.0496 0.1664-0.4864 0.2816-0.9856 0.448-1.5104a451.1872 451.1872 0 0 0-11.8272-1.28 587.648 587.648 0 0 0-3.0848 13.7344zM473.4976 459.2512c-1.28-2.56-2.624-5.2096-3.9808-7.808-1.28-0.1792-2.4704-0.3712-3.6992-0.5248q-1.8688 6.8608-3.584 13.696l2.752 0.3712q0.8832-3.5072 1.8432-7.0272c0.3072-1.5488 0.6528-3.0848 0.96-4.6336 1.3568 2.56 2.688 5.2096 3.9552 7.808 0.768 0.128 1.536 0.2432 2.2784 0.3328 2.56-1.9968 5.12-3.9808 7.744-5.9136-0.5248 1.5104-1.0752 3.0464-1.5744 4.5568-0.6784 2.2912-1.3568 4.5696-2.0096 6.848l2.752 0.4736q1.9328-6.7584 4.1344-13.5168l-3.6096-0.6528c-2.6496 1.92-5.2992 3.9552-7.9616 5.9904zM492.6976 469.6192c3.6736 0.704 7.2832 1.472 10.88 2.304l0.5248-1.472c-2.7392-0.5888-5.4528-1.1776-8.2304-1.728l1.5744-4.7232 7.4368 1.5744c0.192-0.4608 0.3328-0.9216 0.4992-1.4208a333.0048 333.0048 0 0 0-7.4496-1.5744l1.4848-4.3776q4.2624 0.8832 8.4352 1.856l0.5376-1.4592q-5.5424-1.28-11.1872-2.4064c-1.5232 4.4416-3.0336 8.9472-4.5056 13.4272zM530.4192 466.8416a2.688 2.688 0 0 0-0.7808-1.6384 6.0672 6.0672 0 0 0-1.7792-1.4208 12.032 12.032 0 0 0-2.752-1.0496c-1.9968-0.5504-3.968-1.0752-5.9776-1.5744-1.792 4.3776-3.52 8.7936-5.12 13.2096l2.56 0.64c0.6144-1.664 1.28-3.3536 1.9072-5.0176 1.1136 0.2688 2.1888 0.5504 3.2768 0.8576a20.6848 20.6848 0 0 0 2.9824 0.4992 9.9328 9.9328 0 0 0 2.4064-0.2816 4.2112 4.2112 0 0 0 1.856-0.96 3.072 3.072 0 0 0 1.2032-1.5104 2.9952 2.9952 0 0 0 0.2176-1.7536z m-2.8416 1.0496a2.944 2.944 0 0 1-0.832 1.1008 2.56 2.56 0 0 1-1.2032 0.5632 4.3008 4.3008 0 0 1-1.5488 0.1152 9.2032 9.2032 0 0 1-1.9072-0.3328c-1.0112-0.2816-2.0352-0.5248-3.0208-0.8064l2.0992-5.2736c1.0112 0.2816 2.0608 0.5248 3.0592 0.8064a13.0816 13.0816 0 0 1 1.8176 0.6784 3.4048 3.4048 0 0 1 1.1648 0.832 1.6896 1.6896 0 0 1 0.5248 1.0496 2.1632 2.1632 0 0 1-0.1536 1.2672zM543.9872 468.5056a12.1088 12.1088 0 0 0-2.56-1.0752c-1.984-0.5888-3.9168-1.2032-5.8624-1.7664q-2.9184 6.4896-5.6448 13.0176c0.832 0.2176 1.6896 0.4608 2.56 0.7424 0.768-1.8816 1.6-3.7376 2.4064-5.5808 1.3952 0.3968 2.7776 0.832 4.1728 1.28 0.3328 2.2144 0.6656 4.4032 0.9728 6.6304l2.56 0.7936-1.0112-7.0528c0.4992-0.064 0.8576-0.1664 1.3824-0.2816a5.44 5.44 0 0 0 1.28-0.4992 3.328 3.328 0 0 0 1.0112-0.6784 2.304 2.304 0 0 0 0.7168-0.9472 3.1488 3.1488 0 0 0 0.3328-1.6768 3.0464 3.0464 0 0 0-0.704-1.536 6.272 6.272 0 0 0-1.6128-1.3696z m-0.5248 3.7632a1.9712 1.9712 0 0 1-0.3328 0.5504 3.84 3.84 0 0 1-0.896 0.7424 2.56 2.56 0 0 1-0.7424 0.2816 3.1232 3.1232 0 0 1-0.7168 0.2176 253.44 253.44 0 0 0-5.2992-1.6384l2.0352-4.5952 2.9952 0.9216a13.8752 13.8752 0 0 1 1.6384 0.6144 3.84 3.84 0 0 1 1.0368 0.8064 1.8816 1.8816 0 0 1 0.4992 0.96 2.3168 2.3168 0 0 1-0.2176 1.1392zM561.9456 474.6112a9.0496 9.0496 0 0 0-2.816-1.5744 9.8048 9.8048 0 0 0-3.4176-0.5888 7.68 7.68 0 0 0-3.0592 0.4608 8.3328 8.3328 0 0 0-2.56 1.5232 9.0368 9.0368 0 0 0-1.8816 2.56 6.6432 6.6432 0 0 0-0.704 2.9312 6.1568 6.1568 0 0 0 0.5504 2.56 7.3088 7.3088 0 0 0 1.7664 2.1632 9.856 9.856 0 0 0 2.8416 1.4464 8.96 8.96 0 0 0 3.1744 0.6144 7.68 7.68 0 0 0 3.0208-0.4352 8.0256 8.0256 0 0 0 2.56-1.472 8.4864 8.4864 0 0 0 1.9456-2.496 8.1408 8.1408 0 0 0 0.896-2.9056 6.3104 6.3104 0 0 0-0.4864-2.56 6.208 6.208 0 0 0-1.8304-2.2272z m-1.1136 6.784a8.448 8.448 0 0 1-1.5104 2.1376 5.7088 5.7088 0 0 1-1.856 1.28 4.9408 4.9408 0 0 1-2.0608 0.3968 5.6448 5.6448 0 0 1-2.1632-0.3968 5.2352 5.2352 0 0 1-1.8688-1.024 4.1728 4.1728 0 0 1-1.1264-1.5104 3.84 3.84 0 0 1-0.2688-1.9968 7.4496 7.4496 0 0 1 0.704-2.4064 7.68 7.68 0 0 1 1.5488-2.1376 4.5696 4.5696 0 0 1 1.8176-1.28 5.3504 5.3504 0 0 1 2.1248-0.4352 8.6144 8.6144 0 0 1 2.2528 0.3968 6.7712 6.7712 0 0 1 1.8944 1.088 3.5968 3.5968 0 0 1 1.1008 1.536 4.3136 4.3136 0 0 1 0.2432 2.0096 7.424 7.424 0 0 1-0.832 2.3424zM573.0432 487.6288l3.648 1.4848-1.9456 3.4816a9.6896 9.6896 0 0 1-1.472-0.2816c-0.4992-0.1536-1.024-0.3712-1.5488-0.576a5.9648 5.9648 0 0 1-2.1504-1.3568 5.248 5.248 0 0 1-1.1904-1.8816 5.12 5.12 0 0 1-0.2432-2.048 7.2832 7.2832 0 0 1 0.6528-2.0608 7.168 7.168 0 0 1 1.6256-2.0096 5.568 5.568 0 0 1 2.1376-1.1392 7.9872 7.9872 0 0 1 2.56-0.1536 11.0208 11.0208 0 0 1 2.8672 0.768 10.8032 10.8032 0 0 1 1.6896 0.896 7.6032 7.6032 0 0 1 1.1776 0.8704c0.4352-0.3712 0.832-0.7168 1.28-1.0496l-0.5888-0.4608c-0.2048-0.1536-0.4608-0.3072-0.704-0.4992s-0.5888-0.3328-0.96-0.5248a8.96 8.96 0 0 0-1.1648-0.5504 14.6048 14.6048 0 0 0-3.9808-1.0496 10.7008 10.7008 0 0 0-3.4816 0.1792 7.8592 7.8592 0 0 0-2.88 1.3568 7.5904 7.5904 0 0 0-2.0352 2.4448 6.144 6.144 0 0 0-0.7296 2.7136 5.4144 5.4144 0 0 0 0.4608 2.56 6.976 6.976 0 0 0 1.8176 2.432 10.9184 10.9184 0 0 0 3.0848 1.856 21.2864 21.2864 0 0 0 2.9312 0.9216 16.0128 16.0128 0 0 0 2.752 0.3968c1.0368-1.8816 2.1248-3.7632 3.2-5.6448a409.9072 409.9072 0 0 1-6.08-2.56c-0.2304 0.5632-0.4992 1.0368-0.7296 1.4848zM596.5824 492.9664a2.8416 2.8416 0 0 0 0.5504-1.6 2.88 2.88 0 0 0-0.4608-1.6128 5.12 5.12 0 0 0-1.3824-1.472 10.3808 10.3808 0 0 0-2.3424-1.4208l-5.376-2.3808c-2.4576 4.0704-4.9024 8.1792-7.2448 12.2752l2.3424 1.024 3.1232-5.248 3.84 1.7024v6.6944l2.368 1.0752v-7.1296a10.752 10.752 0 0 0 1.3952-0.0896c0.4608-0.0896 0.8576-0.2176 1.28-0.3328a3.6224 3.6224 0 0 0 1.088-0.6272 2.688 2.688 0 0 0 0.8192-0.8576z m-2.3168-1.0752a2.1504 2.1504 0 0 1-0.4224 0.5504l-0.6784 0.5248a2.7008 2.7008 0 0 1-1.024 0.3072 3.008 3.008 0 0 1-0.4608 0.0896c-1.856-0.704-3.4816-1.4464-5.12-2.1888 0.8576-1.4208 1.728-2.8672 2.56-4.3136l2.6752 1.2032a11.904 11.904 0 0 1 1.5104 0.7936 4.6464 4.6464 0 0 1 0.9344 0.96 1.5104 1.5104 0 0 1 0.3328 0.9856 2.3936 2.3936 0 0 1-0.3072 1.088zM600.96 499.1104l6.272 3.136a12.928 12.928 0 0 0 0.832-1.28c-2.0736-1.0496-4.1728-2.1376-6.272-3.1488 0.832-1.28 1.7024-2.56 2.56-3.84 2.3808 1.1776 4.7872 2.3808 7.1296 3.584l0.896-1.28a505.088 505.088 0 0 0-9.4976-4.7488c-2.6624 3.9808-5.2224 7.9872-7.744 12.032 3.0848 1.4848 6.1696 3.0208 9.216 4.5696l0.832-1.28c-2.2784-1.1776-4.6208-2.3168-6.9248-3.456a116.608 116.608 0 0 1 2.7008-4.288zM618.1376 507.3152a15.488 15.488 0 0 0-1.6384-1.7664 8.0128 8.0128 0 0 1-1.8176-2.2144 1.6128 1.6128 0 0 1 0.192-1.6384 1.5744 1.5744 0 0 1 0.704-0.6784 2.24 2.24 0 0 1 0.96-0.3072 3.3152 3.3152 0 0 1 1.28 0.1152 7.552 7.552 0 0 1 1.4208 0.5248c0.4352 0.256 0.7424 0.4736 1.1136 0.7168a10.3936 10.3936 0 0 1 0.7936 0.704c0.3072 0.256 0.5632 0.4992 0.8064 0.7424s0.4352 0.4992 0.6528 0.7424l1.4464-1.024c-0.1536-0.1792-0.4096-0.3968-0.6144-0.6144a6.2592 6.2592 0 0 0-0.896-0.832 7.3216 7.3216 0 0 0-1.1392-0.8576 14.6304 14.6304 0 0 0-1.28-0.8064 10.432 10.432 0 0 0-2.3808-0.96 8.0256 8.0256 0 0 0-2.1376-0.2176 4.4928 4.4928 0 0 0-1.7536 0.4736 3.84 3.84 0 0 0-1.3568 1.1392 2.2784 2.2784 0 0 0-0.4608 1.3568 3.0208 3.0208 0 0 0 0.2816 1.4464 5.824 5.824 0 0 0 0.8576 1.5104 11.2512 11.2512 0 0 0 1.28 1.3952 15.808 15.808 0 0 1 1.28 1.2032c0.3072 0.3712 0.5504 0.7296 0.768 1.0496a3.3664 3.3664 0 0 1 0.2816 1.0112 1.6896 1.6896 0 0 1-0.3072 0.832 1.8816 1.8816 0 0 1-0.7424 0.7424 2.944 2.944 0 0 1-1.0496 0.2816 3.0848 3.0848 0 0 1-1.1648-0.128 5.312 5.312 0 0 1-1.3568-0.5504c-0.4352-0.2176-0.8064-0.4608-1.1776-0.6784s-0.6784-0.4608-0.96-0.7168-0.6144-0.4864-0.8576-0.7424-0.5248-0.4864-0.8064-0.768c-0.4608 0.3456-0.9216 0.6528-1.3824 0.9856a4.3776 4.3776 0 0 0 0.768 0.7808 13.0816 13.0816 0 0 0 1.0496 0.832c0.3712 0.2688 0.768 0.576 1.2032 0.832l1.28 0.768a11.4304 11.4304 0 0 0 2.2912 0.9216 8.192 8.192 0 0 0 2.0608 0.2176 4.16 4.16 0 0 0 1.7664-0.4608 2.7648 2.7648 0 0 0 1.28-1.1392 2.4064 2.4064 0 0 0 0.5632-1.28 2.56 2.56 0 0 0-0.2176-1.3952 5.5424 5.5424 0 0 0-0.8832-1.5488zM634.8928 511.3216c0.4992-0.3072 0.9984-0.6528 1.4848-0.96a8.448 8.448 0 0 0-0.5888-0.64 10.752 10.752 0 0 0-0.8576-0.8448 8.1024 8.1024 0 0 0-1.088-0.8832 7.5136 7.5136 0 0 0-1.28-0.8704 9.7408 9.7408 0 0 0-2.3168-1.0112 6.2976 6.2976 0 0 0-2.0992-0.2816 4.1088 4.1088 0 0 0-1.792 0.4352 3.6864 3.6864 0 0 0-1.3824 1.0752 2.7264 2.7264 0 0 0-0.5248 1.3568 3.9552 3.9552 0 0 0 0.2432 1.4464 5.5936 5.5936 0 0 0 0.8064 1.5104 12.9024 12.9024 0 0 0 1.28 1.4592c0.4352 0.4224 0.8064 0.832 1.152 1.2032a7.0656 7.0656 0 0 1 0.7296 1.1008 3.1872 3.1872 0 0 1 0.256 0.9984 1.7024 1.7024 0 0 1-0.3712 0.8576 1.9712 1.9712 0 0 1-0.7424 0.6784 2.7264 2.7264 0 0 1-1.024 0.2816 4.8768 4.8768 0 0 1-1.28-0.1536 7.5648 7.5648 0 0 1-1.28-0.5888c-0.3968-0.2432-0.768-0.5248-1.1392-0.7424a6.4 6.4 0 0 1-0.9344-0.7424c-0.2432-0.2432-0.576-0.5248-0.576-0.5248l-0.9984-1.0112a44.8768 44.8768 0 0 1-1.408 0.9216 5.12 5.12 0 0 0 0.7296 0.8064c0.32 0.3072 0.6272 0.5504 0.9984 0.8576a11.1872 11.1872 0 0 0 1.2032 0.8704 13.5808 13.5808 0 0 0 1.28 0.7936 9.5104 9.5104 0 0 0 2.2272 0.9856 6.1824 6.1824 0 0 0 2.0352 0.2816 4.3264 4.3264 0 0 0 1.7664-0.3712 3.52 3.52 0 0 0 1.28-1.1136 2.6496 2.6496 0 0 0 0.4352-2.6752 5.4016 5.4016 0 0 0-0.832-1.5744 13.248 13.248 0 0 0-1.536-1.7664 8.2688 8.2688 0 0 1-1.7408-2.304 1.7536 1.7536 0 0 1 0.2432-1.6384 1.92 1.92 0 0 1 0.7424-0.6528 2.56 2.56 0 0 1 2.2528-0.1152 6.0544 6.0544 0 0 1 1.3952 0.5504c0.3968 0.2816 0.704 0.4992 1.0496 0.768s0.5504 0.4736 0.5504 0.4736a10.24 10.24 0 0 1 0.96 0.9856 3.1232 3.1232 0 0 1 0.6912 0.768zM648.4736 517.5808a7.0656 7.0656 0 0 0-2.2272-2.0608 8.0128 8.0128 0 0 0-2.9312-1.28 7.1936 7.1936 0 0 0-2.9952-0.1536 7.3856 7.3856 0 0 0-2.7648 0.9856 8.192 8.192 0 0 0-2.4064 2.0992 7.3216 7.3216 0 0 0-1.4208 2.7136 5.888 5.888 0 0 0-0.1536 2.6624 5.376 5.376 0 0 0 1.088 2.3936 8.2304 8.2304 0 0 0 2.2144 1.984 9.1264 9.1264 0 0 0 2.7648 1.28 8.5888 8.5888 0 0 0 2.9056 0.128 8.2816 8.2816 0 0 0 2.7392-0.9344 9.1776 9.1776 0 0 0 2.4704-2.0864 8.6144 8.6144 0 0 0 1.5744-2.56 6.4 6.4 0 0 0 0.2176-2.56 5.3248 5.3248 0 0 0-1.0752-2.6112z m-1.4208 4.224a7.3856 7.3856 0 0 1-1.3952 2.1376 9.472 9.472 0 0 1-1.9072 1.7792 5.76 5.76 0 0 1-1.9968 0.8704 6.1056 6.1056 0 0 1-2.048 0 8.192 8.192 0 0 1-1.9072-0.8064 5.504 5.504 0 0 1-1.4464-1.3568 3.5968 3.5968 0 0 1-0.6272-1.6896 4.0832 4.0832 0 0 1 0.256-1.984 7.68 7.68 0 0 1 1.28-2.2144 8.6912 8.6912 0 0 1 1.9456-1.792 4.9152 4.9152 0 0 1 2.0352-0.8576 5.12 5.12 0 0 1 2.0352 0 6.0288 6.0288 0 0 1 1.9712 0.832 6.8736 6.8736 0 0 1 1.5104 1.3952 4.4288 4.4288 0 0 1 0.6144 1.7536 5.12 5.12 0 0 1-0.32 1.9328z" fill="#02842D" /></svg>