<?xml version="1.0" standalone="no"?><!DOCTYPE svg PUBLIC "-//W3C//DTD SVG 1.1//EN" "http://www.w3.org/Graphics/SVG/1.1/DTD/svg11.dtd"><svg class="icon" width="16px" height="16.00px" viewBox="0 0 1024 1024" version="1.1" xmlns="http://www.w3.org/2000/svg"><path d="M28.444444 28.444444m483.555556 0l0 0q483.555556 0 483.555556 483.555556l0 0q0 483.555556-483.555556 483.555556l0 0q-483.555556 0-483.555556-483.555556l0 0q0-483.555556 483.555556-483.555556Z" fill="#FFFFFF" /><path d="M340.963556 598.016l-112.128-57.685333H197.006222L132.892444 569.173333l19.854223 28.842667 188.216889 131.299556 102.826666 133.148444v13.425778l297.386667-72.277334 16.099555-131.413333-64.853333-281.998222-49.152-112.298667h-36.181333l-28.785778 31.374222-25.258667-58.311111-33.792-48.384-36.892444 18.773334-16.896 29.610666-21.674667-48.384H395.946667l-36.010667 18.773334V277.902222l-36.864-26.936889-42.097778 15.616v60.302223l25.969778 87.210666z" fill="#FBCF80" /><path d="M891.448889 616.590222l-0.256 0.512c-4.352 16.440889-17.92 22.072889-29.127111 25.230222-24.803556 7.196444-51.2 14.876444-80.611556 24.234667-3.242667 1.080889-8.220444 2.389333-8.732444 3.470222-0.512 0.824889-0.256 5.034667 0 8.760889v0.256c0 1.820444 0.284444 3.470222 0.284444 5.290667v1.336889c1.336889 35.640889-0.540444 72.277333-5.489778 112.241778-2.218667 17.521778-3.84 20.764444-20.679111 25.230222-24.035556 6.371556-47.957333 12.487111-72.248889 18.858666-40.846222 10.666667-81.976889 21.248-122.908444 32.170667-22.300444 5.888-44.942222 12.003556-67.015111 17.777778l-30.264889 7.964444-0.512 0.227556h-2.730667l-0.853333-0.227556c-8.732444-2.417778-13.340444-9.016889-16.924444-14.904889l-2.730667-4.551111c-5.973333-10.666667-12.231111-21.816889-19.342222-32.170666-42.951111-63.118222-101.006222-120.348444-177.095111-174.876445-23.409778-16.782222-48.469333-32.170667-72.988445-47.075555-8.988444-5.290667-17.948444-10.894222-27.022222-16.440889-9.813333-6.115556-16.071111-12.743111-19.911111-20.764445L113.777778 588.060444v-14.051555l0.512-1.080889a98.844444 98.844444 0 0 1 46.336-44.174222 102.997333 102.997333 0 0 1 64.853333-7.68c5.745778 1.052444 10.865778 3.214222 15.587556 5.603555 14.165333 7.68 82.915556 38.883556 96.739555 46.563556l16.924445 9.614222c8.476444 4.778667 12.231111 12.487111 9.244444 19.911111a22.328889 22.328889 0 0 1-12.8 12.515556c-4.124444 1.308444-9.585778 0.483556-16.099555-3.242667-2.986667-1.564444-5.717333-3.214222-8.704-4.551111-11.719111-6.115556-78.563556-35.384889-89.685334-43.093333-16.327111-11.150222-33.763556-12.743111-56.661333-5.034667-12.572444 4.209778-22.044444 9.329778-28.302222 19.427556 2.474667 1.592889 4.892444 2.901333 7.367111 4.551111 7.850667 5.063111 16.327111 10.097778 24.519111 14.904889 88.291556 51.598222 163.783111 114.631111 224.568889 187.164444 13.084444 15.729778 24.519111 32.711111 35.384889 48.924444 4.835556 7.196444 9.813333 14.620444 14.961777 22.072889 1.109333 1.564444 2.218667 3.470222 3.242667 5.290667l29.639111-7.68c26.168889-6.968889 52.053333-13.568 77.966222-20.536889l22.897778-5.859555c44.458667-11.662222 90.168889-23.665778 135.395556-35.072 4.124444-1.080889 4.892444-1.905778 4.892444-6.371556 0.512-10.922667 1.109333-21.845333 1.877334-32.426667 1.109333-14.876444 2.133333-30.264889 2.474666-45.511111 1.137778-55.324444-10.865778-108.174222-22.897778-152.604444-19.911111-73.614222-41.130667-151.779556-65.422222-238.819556a53.248 53.248 0 0 0-9.557333-18.119111c-4.608-5.859556-13.084444-11.975111-25.628445-7.936-13.084444 3.982222-16.583111 14.392889-17.436444 22.328889-0.512 5.888 0.256 12.515556 2.133333 19.939556 7.111111 26.055111 14.193778 52.366222 21.276445 78.165333 5.205333 18.858667 10.609778 38.570667 15.815111 57.998222 0.853333 2.901333 1.877333 8.760889 0.256 14.051556-2.133333 7.452444-8.704 12.003556-17.180445 11.662222-8.988444-0.227556-14.705778-5.290667-17.436444-15.132445l-10.353778-37.461333c-4.835556-18.375111-10.069333-36.408889-14.961778-54.755555-3.242667-11.662222-6.229333-23.409778-9.557333-34.844445-8.732444-31.687111-17.692444-64.597333-26.680889-96.768a53.248 53.248 0 0 0-9.557333-18.119111c-6.599111-7.964444-15.559111-11.178667-25.315556-8.533333-12.231111 3.242667-15.815111 13.824-17.180444 19.683555-1.109333 6.371556-1.109333 13.568 0.512 19.456 15.559111 57.969778 31.886222 116.707556 47.445333 173.624889 4.352 16.213333 8.732444 32.170667 13.340445 48.384 0 0.512 0.256 0.853333 0.256 1.336889 0.256 1.308444 0.853333 2.645333 1.109333 4.209778 1.621333 11.178667-3.242667 19.114667-13.340444 21.504-9.557333 2.161778-18.289778-2.872889-21.276445-13.312a602.567111 602.567111 0 0 1-8.220444-28.700445l-1.621334-5.888c-9.216-33.735111-18.545778-67.242667-27.761777-101.063111l-34.360889-125.838222c-4.380444-15.928889-14.961778-25.543111-30.264889-26.538667a34.133333 34.133333 0 0 0-33.28 19.683556c-2.958222 6.940444-3.214222 14.051556-0.483556 23.893333l27.761778 101.603556c6.826667 24.746667 13.596444 49.208889 20.195556 73.955555 2.986667 10.894222 5.973333 21.504 8.96 32.426667 4.608 17.038222 9.244444 33.735111 13.937777 50.773333 2.133333 7.964444 1.137778 15.132444-3.242666 19.939556-3.498667 4.209778-8.988444 6.115556-15.303111 5.632-12.231111-1.336889-15.303111-12.003556-16.327112-15.957333l-9.671111-35.754667-11.377777-41.443556-11.178667-44.174222c-11.463111-42.012444-23.409778-85.617778-35.384889-128.455111-4.608-16.213333-13.937778-24.974222-27.790222-25.571556-16.327111-0.824889-29.127111 6.968889-35.128889 21.020445-2.730667 6.371556-2.730667 13.568-0.256 23.153778l66.929778 244.195555 12.572444 45.511111c0.853333 2.389333 1.365333 5.034667 1.877333 7.68 2.133333 10.922667-2.730667 19.427556-12.572444 22.101334-9.813333 2.645333-19.057778-3.242667-22.044444-13.568-2.986667-10.097778-5.717333-20.536889-8.476445-30.293334-1.109333-3.470222-1.877333-7.196444-2.986667-10.666666l-9.813333-35.896889c-4.636444-17.066667-9.244444-33.763556-13.937778-50.801778-3.84 7.964444-7.111111 15.388444-10.609777 23.182222-0.853333 1.564444-1.365333 3.470222-1.877334 5.290667l-1.621333 4.778667c-4.096 10.353778-13.340444 15.160889-22.897778 11.662222-9.841778-3.470222-14.222222-12.487111-10.951111-22.812445a203.093333 203.093333 0 0 1 31.857778-63.544889c2.759111-3.697778 3.271111-6.371556 1.905778-10.922666-9.585778-33.735111-19.342222-69.632-32.142223-116.195556-9.216-34.019556 2.730667-63.288889 32.995556-80.099555a70.428444 70.428444 0 0 1 58.567111-4.551111 20.650667 20.650667 0 0 1 4.608 1.905777c10.922667-25.230222 30.776889-39.850667 58.311111-42.837333 27.249778-2.901333 49.038222 7.196444 64.853333 29.781333a66.275556 66.275556 0 0 1 11.207112-8.760889 59.847111 59.847111 0 0 1 45.454222-7.196444c16.071111 3.697778 29.411556 13.312 37.632 27.136 5.717333 9.585778 8.96 20.195556 12.544 30.264889 1.393778 4.209778 2.759111 8.533333 4.380444 12.487111 0.512 1.336889 1.109333 2.901333 1.365334 4.209778 1.109333-0.483556 2.218667-1.308444 3.242666-1.905778 6.826667-3.982222 14.193778-8.248889 22.044445-10.325333 30.264889-8.248889 62.407111 9.016889 73.614222 39.623111 5.973333 16.782222 10.581333 33.991111 15.303111 50.801778 1.109333 3.697778 1.877333 7.424 2.986667 11.150222l7.850666 28.728889c15.559111 57.144889 31.886222 116.195556 47.104 174.449777 4.608 17.521778 8.220444 35.640889 11.719111 53.191112 1.365333 6.343111 2.730667 12.714667 4.096 19.427555l85.816889-25.571555c-2.133333-8.760889-7.850667-16.213333-17.948444-23.153778-14.193778-9.585778-29.667556-18.375111-49.066667-15.729778a15.957333 15.957333 0 0 1-11.946666-3.214222 15.900444 15.900444 0 0 1-6.855112-11.178667c-1.365333-10.069333 3.498667-18.090667 12.572445-19.427555 8.192-1.336889 18.773333-2.645333 28.615111-0.483556 33.507556 7.196444 58.567111 23.893333 74.382222 49.948444 2.133333 3.470222 3.498667 7.452444 5.205334 10.922667 0.512 1.564444 1.365333 3.214222 1.877333 4.551111l-0.768 0.995556v14.876444z" fill="#000000" /><path d="M781.710222 406.471111l-18.801778 31.118222c-3.868444 6.371556-9.585778 9.841778-15.815111 9.841778a21.048889 21.048889 0 0 1-9.244444-2.389333 16.469333 16.469333 0 0 1-8.448-10.097778c-1.365333-4.807111-0.284444-10.353778 2.986667-15.729778 8.96-15.36 17.92-30.606222 27.249777-45.966222 12.231111-20.536889 24.803556-41.813333 37.12-62.805333 3.84-6.371556 7.594667-13.084444 9.557334-19.911111 4.352-14.648889-3.498667-30.037333-18.545778-36.750223-16.327111-7.452444-29.667556-3.697778-39.736889 10.666667-4.380444 6.144-8.476444 12.231111-12.828444 18.375111l-9.927112 14.392889c-4.835556 7.196444-13.084444 9.585778-20.167111 6.371556-5.461333-2.389333-10.325333-7.452444-11.719111-12.515556-1.621333-5.603556 1.649778-11.975111 3.527111-15.36 3.242667-5.632 7.111111-10.922667 10.325334-16.213333 4.380444-6.627556 8.988444-13.312 12.828444-20.195556 8.220444-14.051556 6.826667-27.960889-4.352-38.798222a33.479111 33.479111 0 0 0-27.278222-10.069333 32.341333 32.341333 0 0 0-23.921778 14.620444c-3.498667 5.290667-6.826667 10.922667-10.097778 16.469333-2.730667 4.807111-5.717333 9.841778-8.96 14.876445-2.247111 3.498667-6.599111 9.016889-12.572444 10.097778-5.461333 1.080889-13.937778-0.483556-17.436445-5.034667-4.608-5.632-3.84-14.648889-3.242666-17.294222 0.512-3.697778 1.621333-7.452444 2.730666-10.922667 1.109333-4.209778 2.474667-7.936 2.474667-11.662222 0.256-5.859556-1.137778-16.213333-12.572444-21.504-8.96-3.982222-18.289778-2.901333-27.761778 3.982222-1.137778 0.824889-2.161778 1.564444-3.271111 2.645333-1.109333 1.052444-2.474667 2.133333-3.498667 2.872889-7.594667 5.546667-17.692444 5.063111-23.921778-1.308444a17.095111 17.095111 0 0 1-0.284444-24.234667 66.787556 66.787556 0 0 1 58.055111-20.764444c18.289778 2.645333 33.507556 13.084444 41.984 29.297777 21.788444-18.147556 45.454222-22.101333 71.111111-12.259555 25.628444 9.841778 40.846222 28.956444 44.458667 55.324444h4.835555c6.855111 0 13.937778 0.284444 20.707556 1.592889 22.897778 5.034667 41.130667 19.114667 50.090667 38.542222 9.386667 18.517333 8.049778 40.618667-2.844445 60.302223-16.896 30.606222-35.100444 60.871111-52.792889 90.424889zM173.511111 413.582222c-1.393778 0.512-3.015111 0.512-4.380444 0.512a15.957333 15.957333 0 0 1-14.961778-11.150222c-3.498667-9.016889-0.512-17.550222 7.111111-20.764444 10.837333-4.551111 21.788444-8.277333 32.398222-11.662223 3.84-1.336889 7.594667-2.673778 11.178667-3.982222l1.137778-0.256h1.109333c4.096 0.256 16.071111 1.564444 19.057778 13.312 2.275556 9.102222-1.450667 17.066667-9.073778 19.939556a451.413333 451.413333 0 0 1-43.576889 14.08z m53.418667-174.848c-0.512 0.824889-1.365333 1.905778-2.133334 2.901334-2.247111 3.214222-4.380444 6.599111-8.476444 8.248888a18.204444 18.204444 0 0 1-7.111111 1.080889 18.716444 18.716444 0 0 1-11.434667-3.470222c-10.609778-8.760889-20.195556-18.602667-28.046222-27.136-6.485333-6.940444-5.973333-16.782222 0.853333-23.637333 6.826667-6.371556 17.692444-6.627556 24.291556-0.512 9.813333 8.760889 19.057778 18.375111 27.505778 27.136a15.644444 15.644444 0 0 1 3.527111 6.627555c0.256 1.052444 0.853333 2.133333 1.365333 3.214223l1.536 3.128888-1.877333 2.417778z m77.511111-50.545778l-3.242667 3.982223c-2.474667 3.214222-4.864 6.371556-8.704 8.248889a17.009778 17.009778 0 0 1-7.879111 2.161777 15.530667 15.530667 0 0 1-13.596444-7.68 262.570667 262.570667 0 0 1-14.705778-29.297777c-3.242667-7.68-0.512-15.36 7.111111-20.195556 8.192-5.034667 17.180444-3.982222 21.532444 2.161778 5.205333 7.68 9.841778 15.729778 14.449778 24.234666 1.877333 3.470222 3.84 6.940444 5.973334 10.666667l1.536 3.072-2.474667 2.645333z m-94.776889 132.693334a16.071111 16.071111 0 0 1-11.463111 5.518222c-5.205333 0.284444-10.097778 0.512-15.217778 0.512-4.864 0-9.813333-0.256-14.449778-0.512a16.896 16.896 0 0 1-15.815111-17.777778c0.284444-9.329778 7.111111-15.957333 16.583111-16.782222 3.527111-0.256 7.111111-0.256 10.353778 0h17.436445c9.244444 0.824889 16.071111 7.196444 16.924444 16.469333a17.152 17.152 0 0 1-4.352 12.572445z" fill="#000000" /></svg>