<?xml version="1.0" standalone="no"?><!DOCTYPE svg PUBLIC "-//W3C//DTD SVG 1.1//EN" "http://www.w3.org/Graphics/SVG/1.1/DTD/svg11.dtd"><svg class="icon" width="16px" height="16.00px" viewBox="0 0 1024 1024" version="1.1" xmlns="http://www.w3.org/2000/svg"><path d="M537.6 972.8c230.4 0 435.2-204.8 435.2-435.2C972.8 266.24 773.12 51.2 537.6 51.2 256 51.2 51.2 256 51.2 537.6c0 235.52 215.04 435.2 486.4 435.2z m0 51.2C235.52 1024 0 803.84 0 537.6 0 230.4 230.4 0 537.6 0 803.84 0 1024 235.52 1024 537.6c0 256-230.4 486.4-486.4 486.4z" fill="#E5E5E5" /><path d="M56.32 348.16C35.84 399.36 25.6 455.68 25.6 512s10.24 112.64 30.72 163.84H972.8c20.48-51.2 30.72-107.52 30.72-163.84s-10.24-112.64-30.72-163.84H56.32z" fill="#FF0000" /><path d="M56.32 348.16H972.8C906.24 158.72 727.04 25.6 517.12 25.6s-394.24 133.12-460.8 322.56z"  /><path d="M967.68 675.84H56.32c66.56 189.44 245.76 322.56 455.68 322.56s389.12-133.12 455.68-322.56z" fill="#FFC400" /></svg>