<?xml version="1.0" standalone="no"?><!DOCTYPE svg PUBLIC "-//W3C//DTD SVG 1.1//EN" "http://www.w3.org/Graphics/SVG/1.1/DTD/svg11.dtd"><svg class="icon" width="16px" height="16.00px" viewBox="0 0 1024 1024" version="1.1" xmlns="http://www.w3.org/2000/svg"><path fill="#7664f8" d="M512 1024c-25.6 0-42.666667-17.066667-42.666667-42.666667V42.666667c0-25.6 17.066667-42.666667 42.666667-42.666667s42.666667 17.066667 42.666667 42.666667v938.666666c0 25.6-17.066667 42.666667-42.666667 42.666667zM618.666667 853.333333H256c-25.6 0-42.666667-17.066667-42.666667-42.666666s17.066667-42.666667 42.666667-42.666667h362.666667c59.733333 0 106.666667-46.933333 106.666666-106.666667S678.4 554.666667 618.666667 554.666667h-213.333334C298.666667 554.666667 213.333333 469.333333 213.333333 362.666667S298.666667 170.666667 405.333333 170.666667H725.333333c25.6 0 42.666667 17.066667 42.666667 42.666666s-17.066667 42.666667-42.666667 42.666667H405.333333C345.6 256 298.666667 302.933333 298.666667 362.666667S345.6 469.333333 405.333333 469.333333h213.333334c106.666667 0 192 85.333333 192 192S725.333333 853.333333 618.666667 853.333333z" /></svg>