<?xml version="1.0" standalone="no"?><!DOCTYPE svg PUBLIC "-//W3C//DTD SVG 1.1//EN" "http://www.w3.org/Graphics/SVG/1.1/DTD/svg11.dtd"><svg class="icon" width="16px" height="11.63px" viewBox="0 0 1409 1024" version="1.1" xmlns="http://www.w3.org/2000/svg"><path fill="#515151" d="M704.692577 71.790108C378.480677 71.790108 90.733007 240.034409 5.289566 481.096487a92.490323 92.490323 0 0 0 0 61.660216A559.639857 559.639857 0 0 0 234.900462 818.75957L318.582183 734.196989a460.689892 460.689892 0 0 1-199.368029-221.976774C192.325552 323.128889 431.33229 190.706237 704.692577 190.706237a828.008602 828.008602 0 0 1 144.167455 12.625663l99.243584-99.243585A917.562724 917.562724 0 0 0 704.692577 71.790108z m699.403011 409.306379A559.639857 559.639857 0 0 0 1177.127272 205.68086l-85.14982 85.149821A455.991971 455.991971 0 0 1 1291.93272 511.926595c-73.405018 189.972186-312.118136 322.982079-587.240143 322.982079a808.923297 808.923297 0 0 1-142.699355-12.625663l-99.243584 99.243584A918.443584 918.443584 0 0 0 704.692577 952.650323c326.50552 0 614.25319-168.537921 699.403011-409.6a93.371183 93.371183 0 0 0 0-61.953836z"  /><path fill="#515151" d="M926.082111 457.313262l-278.058208 278.351828a225.500215 225.500215 0 0 0 56.668674 7.340501 229.610896 229.610896 0 0 0 227.849176-230.785376 242.236559 242.236559 0 0 0-6.459642-54.906953z m-221.389534-176.172043a229.610896 229.610896 0 0 0-227.555556 231.078996 239.006738 239.006738 0 0 0 6.753262 56.375054L763.416591 289.068961a216.397993 216.397993 0 0 0-58.724014-7.927742zM193.676204 940.75871l940.75871-940.75871 83.035756 83.09448-940.75871 940.699986z"  /></svg>