<?xml version="1.0" standalone="no"?><!DOCTYPE svg PUBLIC "-//W3C//DTD SVG 1.1//EN" "http://www.w3.org/Graphics/SVG/1.1/DTD/svg11.dtd"><svg class="icon" width="16px" height="16.00px" viewBox="0 0 1024 1024" version="1.1" xmlns="http://www.w3.org/2000/svg"><path fill="#515151" d="M512 793.6c-192 0-345.6-89.6-448-268.8C166.4 345.6 320 256 512 256s345.6 89.6 448 268.8c-102.4 179.2-256 268.8-448 268.8z m9.6-448c-134.4 0-268.8 57.6-345.6 179.2 76.8 121.6 211.2 179.2 345.6 179.2 134.4 0 249.6-57.6 326.4-179.2-76.8-121.6-192-179.2-326.4-179.2z m-9.6 313.6c-76.8 0-134.4-57.6-134.4-134.4 0-76.8 57.6-134.4 134.4-134.4 76.8 0 134.4 57.6 134.4 134.4 0 76.8-57.6 134.4-134.4 134.4z m0-89.6c25.6 0 44.8-19.2 44.8-44.8 0-25.6-19.2-44.8-44.8-44.8s-44.8 19.2-44.8 44.8c0 25.6 19.2 44.8 44.8 44.8z" /></svg>