<?xml version="1.0" standalone="no"?><!DOCTYPE svg PUBLIC "-//W3C//DTD SVG 1.1//EN" "http://www.w3.org/Graphics/SVG/1.1/DTD/svg11.dtd"><svg class="icon" width="16px" height="16.00px" viewBox="0 0 1024 1024" version="1.1" xmlns="http://www.w3.org/2000/svg"><path fill="#d81e06" d="M516.872984 862.32376c-92.176352 0-166.729326-32.156374-223.655849-96.484472-56.927547-64.318888-85.390809-148.749836-85.390809-253.29796 0-104.84386 29.071106-189.500958 87.219457-253.976412 58.142212-64.469314 134.218888-96.709599 228.216725-96.709599 72.603575 0 135.043672 20.336164 187.317223 61.008492 52.267411 40.672328 82.926688 92.797499 91.965551 156.36221l-86.768179 0c-8.43716-43.983747-29.826306-77.955466-64.171532-101.906971-34.345226-23.951505-78.936817-35.927257-133.766586-35.927257-64.779376 0-117.208469 25.081235-157.272953 75.243705-40.072671 50.16247-60.104913 115.916033-60.104913 197.260689 0 86.47142 19.354813 153.354714 58.07058 200.649879 38.71679 47.302329 93.327572 70.950935 163.833369 70.950935 68.387553 0 123.674741-25.004487 165.859515-75.017554 6.622838-7.831362 12.653181-16.112979 18.076704-24.855084 7.230682-11.749602 13.332656-28.167526 18.302855-49.25889 4.971222-21.084201 7.455809-41.12463 7.455809-60.104913l0-8.134261L523.799744 568.126298l0-75.922157L814.627459 492.204142l0 351.58959-56.023968 0-21.692045-83.604116-4.971222 5.874801C677.422564 830.237995 605.730755 862.32376 516.872984 862.32376z" /></svg>