<?xml version="1.0" standalone="no"?><!DOCTYPE svg PUBLIC "-//W3C//DTD SVG 1.1//EN" "http://www.w3.org/Graphics/SVG/1.1/DTD/svg11.dtd"><svg class="icon" width="16px" height="16.00px" viewBox="0 0 1024 1024" version="1.1" xmlns="http://www.w3.org/2000/svg"><path d="M0 0m228.968944 0l566.062112 0q228.968944 0 228.968944 228.968944l0 566.062112q0 228.968944-228.968944 228.968944l-566.062112 0q-228.968944 0-228.968944-228.968944l0-566.062112q0-228.968944 228.968944-228.968944Z" fill="#FF69A5" /><path d="M534.26087 414.173019c21.635021-8.79368 36.889441-30.025461 36.889441-54.818982 0-32.66878-26.48153-59.150311-59.150311-59.15031S452.849689 326.685257 452.849689 359.354037c0 24.79352 15.25442 46.025302 36.889441 54.818982V484.014907c0 50.230698-40.720855 90.951553-90.951552 90.951553S307.836025 534.245605 307.836025 484.014907v-9.794783c15.940055-8.924701 26.713043-25.973983 26.713043-45.539379 0-28.804293-23.348472-52.154037-52.154037-52.154037s-52.154037 23.349744-52.154037 52.154037c0 23.979409 16.181744 44.179558 38.223821 50.272676-0.041978 1.933516-0.06233 4.036214-0.062331 6.333536 0 68.012681 18.275538 130.752716 49.090942 181.141147C369.108114 705.06407 439.776835 722.524224 517.724224 722.524224c68.064835 0 130.580989-11.802077 179.706275-42.134102C733.701724 627.862102 755.597516 559.732393 755.597516 485.286957c0-2.31513-0.020353-4.419101-0.062331-6.333536C777.577262 472.860303 793.759006 452.661426 793.759006 428.680745c0-28.804293-23.348472-52.154037-52.154037-52.154037s-52.154037 23.349744-52.154037 52.154037c0 19.565396 10.772989 36.614678 26.713043 45.539379v9.794783c0 50.230698-40.720855 90.951553-90.951553 90.951553S534.26087 534.245605 534.26087 484.014907v-69.841888z" fill="#FFFFFF" /></svg>