<?xml version="1.0" standalone="no"?><!DOCTYPE svg PUBLIC "-//W3C//DTD SVG 1.1//EN" "http://www.w3.org/Graphics/SVG/1.1/DTD/svg11.dtd"><svg t="1700244222678" class="icon" viewBox="0 0 1024 1024" version="1.1" xmlns="http://www.w3.org/2000/svg" p-id="2123" xmlns:xlink="http://www.w3.org/1999/xlink" width="16" height="16"><path d="M837.818182 1024H186.181818c-102.865455 0-186.181818-83.316364-186.181818-186.181818V186.181818c0-102.865455 83.316364-186.181818 186.181818-186.181818h651.636364c102.865455 0 186.181818 83.316364 186.181818 186.181818v651.636364c0 102.865455-83.316364 186.181818-186.181818 186.181818z" fill="#6FA7FF" p-id="2124"></path><path d="M512.232727 979.549091c-12.334545 0-24.901818-3.258182-35.84-9.541818L151.505455 782.429091a71.330909 71.330909 0 0 1-35.607273-61.905455V345.6c0-25.367273 13.730909-49.105455 35.607273-61.905455l324.887272-187.578181c22.109091-12.8 49.338182-12.8 71.447273 0l324.887273 187.578181c22.109091 12.8 35.607273 36.305455 35.607272 61.905455v375.156364c0 25.367273-13.730909 49.105455-35.607272 61.905454l-47.243637 27.461818c-11.170909 6.283636-25.367273 2.56-31.883636-8.610909s-2.56-25.367273 8.610909-31.883636l47.476364-27.461818c7.68-4.421818 12.334545-12.567273 12.334545-21.410909V345.6c0-8.843636-4.654545-16.989091-12.334545-21.410909L524.334545 136.378182c-7.68-4.421818-17.221818-4.421818-24.901818 0L174.778182 323.956364c-7.68 4.421818-12.334545 12.567273-12.334546 21.410909v375.156363c0 8.843636 4.654545 16.989091 12.334546 21.410909l324.887273 187.578182c7.68 4.421818 17.221818 4.421818 24.901818 0l120.087272-64a23.109818 23.109818 0 0 1 31.418182 9.541818c6.050909 11.403636 1.861818 25.367273-9.541818 31.418182L546.909091 970.472727c-10.472727 6.050909-22.574545 9.076364-34.676364 9.076364z" fill="#FFFFFF" p-id="2125"></path><path d="M475.927273 712.843636c-6.283636 0-12.334545-2.56-16.756364-6.981818l-135.912727-139.170909a22.970182 22.970182 0 0 1 0.465454-32.814545 23.179636 23.179636 0 0 1 32.814546 0.465454l119.156363 122.181818 225.512728-232.727272a22.970182 22.970182 0 0 1 32.814545-0.465455c9.309091 8.843636 9.541818 23.738182 0.465455 32.814546l-242.036364 249.94909c-4.189091 4.189091-10.24 6.749091-16.523636 6.749091z" fill="#FFFFFF" p-id="2126"></path></svg>