<?xml version="1.0" standalone="no"?><!DOCTYPE svg PUBLIC "-//W3C//DTD SVG 1.1//EN" "http://www.w3.org/Graphics/SVG/1.1/DTD/svg11.dtd"><svg t="1700244072614" class="icon" viewBox="0 0 1024 1024" version="1.1" xmlns="http://www.w3.org/2000/svg" p-id="1802" xmlns:xlink="http://www.w3.org/1999/xlink" width="16" height="16"><path d="M837.818182 1024H186.181818c-102.865455 0-186.181818-83.316364-186.181818-186.181818V186.181818c0-102.865455 83.316364-186.181818 186.181818-186.181818h651.636364c102.865455 0 186.181818 83.316364 186.181818 186.181818v651.636364c0 102.865455-83.316364 186.181818-186.181818 186.181818z" fill="#F6CC4F" p-id="1803"></path><path d="M512 909.265455c-18.850909 0-36.770909-7.912727-49.570909-21.876364L110.312727 502.690909c-18.385455-20.247273-22.807273-49.338182-11.170909-74.007273L229.236364 153.134545a67.490909 67.490909 0 0 1 60.741818-38.4h444.276363c25.832727 0 49.570909 15.127273 60.741819 38.4l130.094545 275.549091c11.636364 24.669091 7.214545 53.76-11.170909 74.007273l-84.712727 92.625455a22.993455 22.993455 0 0 1-32.814546 1.396363 22.993455 22.993455 0 0 1-1.396363-32.814545l84.712727-92.625455c5.585455-6.283636 6.981818-15.127273 3.490909-22.574545L752.64 173.149091a20.782545 20.782545 0 0 0-18.618182-11.869091H289.978182c-7.912727 0-15.127273 4.654545-18.618182 11.869091L141.265455 448.465455c-3.490909 7.68-2.327273 16.523636 3.490909 22.574545l352.116363 384.930909a20.945455 20.945455 0 0 0 30.254546 0l125.672727-137.309091c8.610909-9.541818 23.272727-10.24 32.814545-1.396363 9.541818 8.610909 10.24 23.505455 1.396364 32.814545l-125.672727 137.309091c-12.567273 13.963636-30.487273 21.876364-49.338182 21.876364z" fill="#FFFFFF" p-id="1804"></path><path d="M512 757.76c-12.101818 0-23.738182-5.12-31.883636-13.963636l-189.207273-206.661819c-8.610909-9.541818-7.912727-24.203636 1.396364-32.814545 9.541818-8.610909 24.203636-7.912727 32.814545 1.396364L512 709.585455l186.414545-203.869091c8.610909-9.541818 23.272727-10.24 32.814546-1.396364 9.541818 8.610909 10.24 23.505455 1.396364 32.814545l-189.207273 206.661819c-7.68 8.843636-19.316364 13.963636-31.418182 13.963636z" fill="#FFFFFF" p-id="1805"></path></svg>