<?xml version="1.0" standalone="no"?><!DOCTYPE svg PUBLIC "-//W3C//DTD SVG 1.1//EN" "http://www.w3.org/Graphics/SVG/1.1/DTD/svg11.dtd"><svg class="icon" width="16px" height="16.00px" viewBox="0 0 1024 1024" version="1.1" xmlns="http://www.w3.org/2000/svg"><path d="M0 0m273.066667 0l477.866666 0q273.066667 0 273.066667 273.066667l0 477.866666q0 273.066667-273.066667 273.066667l-477.866666 0q-273.066667 0-273.066667-273.066667l0-477.866666q0-273.066667 273.066667-273.066667Z" fill="#A46EFF" /><path d="M256 768a17.066667 17.066667 0 0 1-17.066667-17.066667 17.066667 17.066667 0 0 1 17.066667-17.066666h85.333333v-51.2h-85.333333a17.066667 17.066667 0 0 1-17.066667-17.066667h238.933334a17.066667 17.066667 0 0 1-17.066667 17.066667h-85.333333v51.2h273.066666v-51.2h-85.333333a17.066667 17.066667 0 0 1-17.066667-17.066667h238.933334a17.066667 17.066667 0 0 1-17.066667 17.066667h-85.333333v51.2h85.333333a17.066667 17.066667 0 0 1 17.066667 17.066666 17.066667 17.066667 0 0 1-17.066667 17.066667z m529.066667-119.466667h-238.933334v-119.466666a17.066667 17.066667 0 0 1 17.066667-17.066667h46.5408l-69.819733-85.333333h-55.842134l-69.819733 85.333333H460.8a17.066667 17.066667 0 0 1 17.066667 17.066667v119.466666h-238.933334v-119.466666a17.066667 17.066667 0 0 1 17.066667-17.066667h121.9072l67.037867-85.333333H426.666667a51.2 51.2 0 0 1-51.2-51.2 51.2 51.2 0 0 1 51.2-51.2h0.477866a76.680533 76.680533 0 0 1 76.322134-68.266667 76.578133 76.578133 0 0 1 73.130666 53.265067L597.333333 307.2c1.297067 0 2.679467 0 4.096 0.170667s3.003733-0.170667 4.437334-0.170667a59.733333 59.733333 0 0 1 59.733333 59.733333 59.733333 59.733333 0 0 1-59.733333 59.733334c-1.706667 0-3.310933 0-5.000534-0.221867a31.3344 31.3344 0 0 1-3.5328 0.221867h-18.295466l67.054933 85.333333H768a17.066667 17.066667 0 0 1 17.066667 17.066667v119.466666z m-309.998934-304.878933l-14.250666 8.635733 13.056 2.048a63.931733 63.931733 0 0 0-1.194667 14.728534 40.260267 40.260267 0 0 0 42.2912 35.328 40.260267 40.260267 0 0 0 8.704-0.938667 44.544 44.544 0 0 1-30.634667-38.4 35.566933 35.566933 0 0 1 0.6656-6.2976l16.708267 2.167467-10.5984-12.9536-10.496-12.885334z m49.2544 36.5568l10.837334 12.578133 14.011733-8.925866 14.0288-8.9088-13.056-1.706667a63.232 63.232 0 0 0 0.836267-14.728533 40.448 40.448 0 0 0-42.103467-34.2528 39.714133 39.714133 0 0 0-9.7792 1.1776 44.5952 44.5952 0 0 1 31.6416 37.632 43.8784 43.8784 0 0 1-0.477867 6.2976l-16.7936-1.706667z" fill="#FFFFFF" /></svg>