<?xml version="1.0" standalone="no"?><!DOCTYPE svg PUBLIC "-//W3C//DTD SVG 1.1//EN" "http://www.w3.org/Graphics/SVG/1.1/DTD/svg11.dtd"><svg class="icon" width="16px" height="16.00px" viewBox="0 0 1024 1024" version="1.1" xmlns="http://www.w3.org/2000/svg"><path d="M0 0m273.066667 0l477.866666 0q273.066667 0 273.066667 273.066667l0 477.866666q0 273.066667-273.066667 273.066667l-477.866666 0q-273.066667 0-273.066667-273.066667l0-477.866666q0-273.066667 273.066667-273.066667Z" fill="#7AD6A6" /><path d="M405.128533 791.261867a59.904 59.904 0 0 1-42.530133-27.562667c-42.786133-62.600533-22.903467-208.759467-19.285333-223.368533 4.266667-31.3856 50.414933-51.541333 87.483733-67.720534a215.9104 215.9104 0 0 0 42.154667-21.5552c3.054933-2.440533 7.714133-7.918933 7.714133-10.632533a29.815467 29.815467 0 0 0-5.853867-18.466133 96.4096 96.4096 0 0 1-23.893333-25.1392 142.455467 142.455467 0 0 1-23.2448-83.3536 116.6336 116.6336 0 0 1 17.988267-58.1632A74.9056 74.9056 0 0 1 511.675733 221.866667h3.549867c63.470933 0 82.7392 59.921067 84.0704 91.613866 0.8704 81.646933-46.728533 108.270933-47.2064 108.4928a30.2592 30.2592 0 0 0-2.9696 15.906134 22.545067 22.545067 0 0 0 4.829867 13.2096 167.253333 167.253333 0 0 0 33.1776 17.681066A178.261333 178.261333 0 0 0 460.8 640a180.0192 180.0192 0 0 0 88.746667 154.7264 276.9408 276.9408 0 0 1-34.321067 2.048 881.6128 881.6128 0 0 1-110.097067-5.512533z m81.8176-155.306667a149.026133 149.026133 0 0 1 149.009067-149.026133v149.026133l112.810667 97.28a148.650667 148.650667 0 0 1-112.810667 51.831467 149.026133 149.026133 0 0 1-149.009067-149.0432z m-165.546666 122.88a233.557333 233.557333 0 0 0-7.458134-1.348267h-0.170666a212.4288 212.4288 0 0 1-56.814934-14.813866c-0.6656-12.7488-2.030933-209.595733 0.529067-220.023467 3.413333-25.6 38.4-42.222933 66.56-55.569067a173.3632 173.3632 0 0 0 30.958933-16.930133 18.312533 18.312533 0 0 0 3.857067-10.632533 24.507733 24.507733 0 0 0-2.389333-12.817067 78.506667 78.506667 0 0 1-19.1488-20.667733 116.206933 116.206933 0 0 1-18.346667-66.7136 94.976 94.976 0 0 1 13.653333-45.806934 58.743467 58.743467 0 0 1 49.664-27.8528h6.2464a67.874133 67.874133 0 0 1 16.008534 1.8432 158.208 158.208 0 0 0-8.055467 44.782934 173.4144 173.4144 0 0 0 29.013333 102.792533l2.850134 3.976533a137.9328 137.9328 0 0 0 11.946666 14.097067l0.6656 0.682667-1.553066 0.785066-5.205334 2.423467-34.338133 15.223467-6.024533 2.781866c-45.2096 21.1968-74.513067 41.6256-80.896 77.892267l-0.136534 0.785067-2.2016 5.5808c-4.0448 10.410667-8.942933 157.952 10.888534 212.5824a57.480533 57.480533 0 0 0 0 6.929066z m339.729066-131.566933h148.974934a148.360533 148.360533 0 0 1-36.215467 97.28z m0-20.974934V457.386667a148.974933 148.974933 0 0 1 148.974934 149.0432z" fill="#FFFFFF" /></svg>