<?xml version="1.0" standalone="no"?><!DOCTYPE svg PUBLIC "-//W3C//DTD SVG 1.1//EN" "http://www.w3.org/Graphics/SVG/1.1/DTD/svg11.dtd"><svg t="1700243872096" class="icon" viewBox="0 0 1024 1024" version="1.1" xmlns="http://www.w3.org/2000/svg" p-id="977" xmlns:xlink="http://www.w3.org/1999/xlink" width="16" height="16"><path d="M837.818182 1024H186.181818c-102.865455 0-186.181818-83.316364-186.181818-186.181818V186.181818c0-102.865455 83.316364-186.181818 186.181818-186.181818h651.636364c102.865455 0 186.181818 83.316364 186.181818 186.181818v651.636364c0 102.865455-83.316364 186.181818-186.181818 186.181818z" fill="#F78748" p-id="978"></path><path d="M204.334545 713.309091a320.232727 186.414545 0 1 0 640.465455 0 320.232727 186.414545 0 1 0-640.465455 0Z" fill="#F78748" p-id="979"></path><path d="M524.567273 922.763636c-192.698182 0-343.505455-92.16-343.505455-209.687272s151.04-209.687273 343.505455-209.687273 343.505455 92.16 343.505454 209.687273-150.807273 209.687273-343.505454 209.687272z m0-372.596363c-161.047273 0-296.96 74.705455-296.96 163.141818s136.145455 163.141818 296.96 163.141818 296.96-74.705455 296.96-163.141818-135.912727-163.141818-296.96-163.141818z" fill="#FFFFFF" p-id="980"></path><path d="M204.334545 532.247273a320.232727 186.414545 0 1 0 640.465455 0 320.232727 186.414545 0 1 0-640.465455 0Z" fill="#F78748" p-id="981"></path><path d="M524.567273 741.934545c-192.698182 0-343.505455-92.16-343.505455-209.687272s151.04-209.687273 343.505455-209.687273 343.505455 92.16 343.505454 209.687273c0.232727 117.76-150.807273 209.687273-343.505454 209.687272z m0-372.596363c-161.047273 0-296.96 74.705455-296.96 163.141818s136.145455 163.141818 296.96 163.141818 296.96-74.705455 296.96-163.141818c0.232727-88.436364-135.912727-163.141818-296.96-163.141818z" fill="#FFFFFF" p-id="982"></path><path d="M204.334545 340.247273a320.232727 186.414545 0 1 0 640.465455 0 320.232727 186.414545 0 1 0-640.465455 0Z" fill="#F78748" p-id="983"></path><path d="M524.567273 549.701818c-192.698182 0-343.505455-92.16-343.505455-209.687273S332.101818 130.327273 524.567273 130.327273 868.072727 222.487273 868.072727 340.014545s-150.807273 209.687273-343.505454 209.687273z m0-372.596363c-161.047273 0-296.96 74.705455-296.96 163.141818s136.145455 163.141818 296.96 163.141818 296.96-74.705455 296.96-163.141818-135.912727-163.141818-296.96-163.141818z" fill="#FFFFFF" p-id="984"></path></svg>