<?xml version="1.0" standalone="no"?><!DOCTYPE svg PUBLIC "-//W3C//DTD SVG 1.1//EN" "http://www.w3.org/Graphics/SVG/1.1/DTD/svg11.dtd"><svg t="1700244236687" class="icon" viewBox="0 0 1024 1024" version="1.1" xmlns="http://www.w3.org/2000/svg" p-id="2285" xmlns:xlink="http://www.w3.org/1999/xlink" width="16" height="16"><path d="M837.818182 1024H186.181818c-102.865455 0-186.181818-83.316364-186.181818-186.181818V186.181818c0-102.865455 83.316364-186.181818 186.181818-186.181818h651.636364c102.865455 0 186.181818 83.316364 186.181818 186.181818v651.636364c0 102.865455-83.316364 186.181818-186.181818 186.181818z" fill="#F6CC4F" p-id="2286"></path><path d="M775.447273 405.876364H523.869091c-12.8 0-23.272727-10.472727-23.272727-23.272728s10.472727-23.272727 23.272727-23.272727h251.578182c12.8 0 23.272727 10.472727 23.272727 23.272727 0 13.032727-10.472727 23.272727-23.272727 23.272728zM775.447273 680.494545H523.869091c-12.8 0-23.272727-10.472727-23.272727-23.272727s10.472727-23.272727 23.272727-23.272727h251.578182c12.8 0 23.272727 10.472727 23.272727 23.272727s-10.472727 23.272727-23.272727 23.272727z" fill="#FFFFFF" p-id="2287"></path><path d="M837.818182 873.192727H186.181818c-37.934545 0-68.654545-28.858182-68.654545-64.465454V215.505455c0-35.607273 30.952727-64.465455 68.654545-64.465455h651.636364c37.934545 0 68.654545 28.858182 68.654545 64.465455v373.061818a22.109091 22.109091 0 1 1-44.218182 0V215.505455c0-11.170909-10.938182-20.247273-24.436363-20.247273H186.181818c-13.498182 0-24.436364 9.076364-24.436363 20.247273v593.221818c0 11.170909 10.938182 20.247273 24.436363 20.247272h651.636364c13.498182 0 24.436364-9.076364 24.436363-20.247272v-50.967273a22.109091 22.109091 0 1 1 44.218182 0v50.967273c0 35.374545-30.72 64.465455-68.654545 64.465454z" fill="#FFFFFF" p-id="2288"></path><path d="M329.541818 756.596364c-54.923636 0-99.607273-44.683636-99.607273-99.607273s44.683636-99.607273 99.607273-99.607273 99.607273 44.683636 99.607273 99.607273-44.683636 99.607273-99.607273 99.607273z m0-152.436364a53.038545 53.038545 0 1 0 0 106.123636 53.038545 53.038545 0 1 0 0-106.123636zM299.52 469.178182c-6.283636 0-12.101818-2.56-16.523636-6.749091l-66.327273-66.327273a23.179636 23.179636 0 1 1 32.814545-32.814545l49.803637 49.803636 109.847272-109.847273a23.179636 23.179636 0 1 1 32.814546 32.814546l-126.370909 126.370909c-3.956364 4.189091-10.007273 6.749091-16.058182 6.749091z" fill="#FFFFFF" p-id="2289"></path></svg>