<?xml version="1.0" standalone="no"?><!DOCTYPE svg PUBLIC "-//W3C//DTD SVG 1.1//EN" "http://www.w3.org/Graphics/SVG/1.1/DTD/svg11.dtd"><svg t="1700243981612" class="icon" viewBox="0 0 1024 1024" version="1.1" xmlns="http://www.w3.org/2000/svg" p-id="1636" xmlns:xlink="http://www.w3.org/1999/xlink" width="16" height="16"><path d="M837.818182 1024H186.181818c-102.865455 0-186.181818-83.316364-186.181818-186.181818V186.181818c0-102.865455 83.316364-186.181818 186.181818-186.181818h651.636364c102.865455 0 186.181818 83.316364 186.181818 186.181818v651.636364c0 102.865455-83.316364 186.181818-186.181818 186.181818z" fill="#F78748" p-id="1637"></path><path d="M832.232727 800.349091v47.941818c0 25.134545-20.48 45.614545-45.614545 45.614546H226.210909c-25.134545 0-45.614545-20.48-45.614545-45.614546V241.338182c0-25.134545 20.48-45.614545 45.614545-45.614546H786.618182c25.134545 0 45.614545 20.48 45.614545 45.614546v379.810909" fill="#F78748" p-id="1638"></path><path d="M786.618182 917.178182H226.210909c-37.934545 0-68.887273-30.952727-68.887273-68.887273V241.338182c0-37.934545 30.952727-68.887273 68.887273-68.887273H786.618182c37.934545 0 68.887273 30.952727 68.887273 68.887273v379.810909c0 12.8-10.472727 23.272727-23.272728 23.272727s-23.272727-10.472727-23.272727-23.272727V241.338182a22.341818 22.341818 0 0 0-22.341818-22.341818H226.210909a22.341818 22.341818 0 0 0-22.341818 22.341818v606.952727c0 12.334545 10.007273 22.341818 22.341818 22.341818H786.618182c12.334545 0 22.341818-10.007273 22.341818-22.341818v-47.941818c0-12.8 10.472727-23.272727 23.272727-23.272727s23.272727 10.472727 23.272728 23.272727v47.941818c0 37.934545-30.952727 68.887273-68.887273 68.887273z" fill="#FFFFFF" p-id="1639"></path><path d="M626.036364 282.298182H387.025455c-13.265455 0-23.970909-10.705455-23.97091-23.970909V133.12c0-13.265455 10.705455-23.970909 23.97091-23.970909H626.036364c13.265455 0 23.970909 10.705455 23.970909 23.970909v125.207273c-0.232727 13.265455-10.938182 23.970909-23.970909 23.970909z" fill="#F78748" p-id="1640"></path><path d="M626.036364 305.570909H387.025455c-26.065455 0-47.243636-21.178182-47.243637-47.243636V133.12c0-26.065455 21.178182-47.243636 47.243637-47.243636H626.036364c26.065455 0 47.243636 21.178182 47.243636 47.243636v125.207273a47.429818 47.429818 0 0 1-47.243636 47.243636zM387.025455 132.421818l-0.698182 125.905455 239.709091 0.698182c0.465455 0 0.698182-0.232727 0.698181-0.698182V133.12l-239.70909-0.698182z" fill="#FFFFFF" p-id="1641"></path><path d="M688.64 481.978182H363.054545c-12.8 0-23.272727-10.472727-23.272727-23.272727s10.472727-23.272727 23.272727-23.272728h325.585455c12.8 0 23.272727 10.472727 23.272727 23.272728s-10.472727 23.272727-23.272727 23.272727z" fill="#FFFFFF" p-id="1642"></path><path d="M688.64 683.985455H363.054545c-12.8 0-23.272727-10.472727-23.272727-23.272728s10.472727-23.272727 23.272727-23.272727h325.585455c12.8 0 23.272727 10.472727 23.272727 23.272727s-10.472727 23.272727-23.272727 23.272728z" fill="#FFFFFF" p-id="1643"></path></svg>