<?xml version="1.0" standalone="no"?><!DOCTYPE svg PUBLIC "-//W3C//DTD SVG 1.1//EN" "http://www.w3.org/Graphics/SVG/1.1/DTD/svg11.dtd"><svg t="1700243941837" class="icon" viewBox="0 0 1024 1024" version="1.1" xmlns="http://www.w3.org/2000/svg" p-id="1311" xmlns:xlink="http://www.w3.org/1999/xlink" width="16" height="16"><path d="M837.818182 1024H186.181818c-102.865455 0-186.181818-83.316364-186.181818-186.181818V186.181818c0-102.865455 83.316364-186.181818 186.181818-186.181818h651.636364c102.865455 0 186.181818 83.316364 186.181818 186.181818v651.636364c0 102.865455-83.316364 186.181818-186.181818 186.181818z" fill="#F6648C" p-id="1312"></path><path d="M779.869091 713.541818l-24.901818 84.48c-3.258182 10.007273-12.8 16.989091-23.272728 16.989091H292.538182c-10.705455 0-20.014545-6.749091-23.272727-16.989091l-136.378182-460.8c-6.050909-18.618182 10.938182-36.538182 29.789091-31.418182l137.774545 37.003637c7.447273 2.094545 15.36 0.465455 21.643636-4.421818l175.01091-136.843637c8.843636-6.981818 21.410909-6.981818 30.254545 0l162.676364 126.603637c14.661818 11.403636 33.512727 15.127273 51.432727 10.24l120.087273-32.581819c18.850909-5.12 35.84 12.8 29.789091 31.418182l-62.37091 211.083637" fill="#F6648C" p-id="1313"></path><path d="M731.461818 838.050909H292.538182c-20.712727 0-39.098182-13.265455-45.381818-32.814545L110.545455 343.738182c-5.352727-16.058182-1.163636-34.443636 10.938181-47.243637 12.101818-12.8 30.254545-17.92 47.243637-13.265454l137.774545 37.003636 176.174546-137.076363c17.454545-13.498182 41.658182-13.498182 58.88 0l162.676363 126.603636c8.843636 6.749091 20.247273 9.076364 30.952728 6.283636l120.087272-32.581818c16.989091-4.654545 35.141818 0.465455 47.243637 13.265455 12.101818 12.8 16.290909 31.185455 10.705454 47.941818l-62.370909 210.385454c-3.723636 12.334545-16.523636 19.316364-28.858182 15.825455-12.334545-3.723636-19.316364-16.523636-15.825454-28.858182l62.370909-211.083636-1.396364-2.327273-120.087273 32.581818c-24.669091 6.749091-51.432727 1.396364-71.68-14.429091l-162.676363-126.603636-176.64 136.843636c-11.869091 9.309091-27.461818 12.334545-41.890909 8.610909L156.625455 328.145455c0 0.232727-1.396364 2.094545-1.396364 2.327272L291.607273 791.272727l439.854545 0.232728 26.065455-84.712728c3.723636-12.334545 16.523636-19.316364 28.858182-15.825454 12.334545 3.723636 19.316364 16.523636 15.825454 28.858182l-24.901818 84.48c-6.981818 20.48-25.134545 33.745455-45.847273 33.745454z" fill="#FFFFFF" p-id="1314"></path><path d="M667.461818 707.490909H351.883636c-12.8 0-23.272727-10.472727-23.272727-23.272727s10.472727-23.272727 23.272727-23.272727h315.578182c12.8 0 23.272727 10.472727 23.272727 23.272727s-10.24 23.272727-23.272727 23.272727z" fill="#FFFFFF" p-id="1315"></path></svg>