<?xml version="1.0" standalone="no"?><!DOCTYPE svg PUBLIC "-//W3C//DTD SVG 1.1//EN" "http://www.w3.org/Graphics/SVG/1.1/DTD/svg11.dtd"><svg t="1700243961606" class="icon" viewBox="0 0 1024 1024" version="1.1" xmlns="http://www.w3.org/2000/svg" p-id="1474" xmlns:xlink="http://www.w3.org/1999/xlink" width="16" height="16"><path d="M837.818182 1024H186.181818c-102.865455 0-186.181818-83.316364-186.181818-186.181818V186.181818c0-102.865455 83.316364-186.181818 186.181818-186.181818h651.636364c102.865455 0 186.181818 83.316364 186.181818 186.181818v651.636364c0 102.865455-83.316364 186.181818-186.181818 186.181818z" fill="#A46FFF" p-id="1475"></path><path d="M884.363636 761.018182V837.818182c0 25.6-20.945455 46.545455-46.545454 46.545454H186.181818c-25.6 0-46.545455-20.945455-46.545454-46.545454V186.181818c0-25.6 20.945455-46.545455 46.545454-46.545454h651.636364c25.6 0 46.545455 20.945455 46.545454 46.545454v372.829091" fill="#A46FFF" p-id="1476"></path><path d="M837.818182 907.869091H186.181818c-38.632727 0-70.050909-31.418182-70.050909-70.050909V186.181818c0-38.632727 31.418182-70.050909 70.050909-70.050909h651.636364c38.632727 0 70.050909 31.418182 70.050909 70.050909v419.374546c0 13.032727-10.472727 23.505455-23.505455 23.505454s-23.505455-10.472727-23.505454-23.505454V186.181818c0-12.567273-10.24-23.04-23.04-23.04H186.181818c-12.567273 0-23.04 10.24-23.04 23.04v651.636364c0 12.567273 10.24 23.04 23.04 23.04h651.636364c12.567273 0 23.04-10.24 23.04-23.04v-76.8c0-13.032727 10.472727-23.505455 23.505454-23.505455s23.505455 10.472727 23.505455 23.505455V837.818182c0 38.632727-31.418182 70.050909-70.050909 70.050909z" fill="#FFFFFF" p-id="1477"></path><path d="M307.898182 780.334545c-12.8 0-23.272727-10.472727-23.272727-23.272727v-215.505454c0-12.8 10.472727-23.272727 23.272727-23.272728s23.272727 10.472727 23.272727 23.272728v215.505454c0 13.032727-10.472727 23.272727-23.272727 23.272727zM507.112727 780.334545c-12.8 0-23.272727-10.472727-23.272727-23.272727v-458.472727c0-12.8 10.472727-23.272727 23.272727-23.272727s23.272727 10.472727 23.272728 23.272727v458.472727c0 13.032727-10.472727 23.272727-23.272728 23.272727z" fill="#FFFFFF" p-id="1478"></path><path d="M725.178182 780.334545c-12.8 0-23.272727-10.472727-23.272727-23.272727V426.356364c0-12.8 10.472727-23.272727 23.272727-23.272728s23.272727 10.472727 23.272727 23.272728v330.938181c0 12.8-10.24 23.04-23.272727 23.04z" fill="#FFFFFF" p-id="1479"></path></svg>