<?xml version="1.0" standalone="no"?><!DOCTYPE svg PUBLIC "-//W3C//DTD SVG 1.1//EN" "http://www.w3.org/Graphics/SVG/1.1/DTD/svg11.dtd"><svg t="1700244203110" class="icon" viewBox="0 0 1024 1024" version="1.1" xmlns="http://www.w3.org/2000/svg" p-id="1962" xmlns:xlink="http://www.w3.org/1999/xlink" width="16" height="16"><path d="M837.818182 1024H186.181818c-102.865455 0-186.181818-83.316364-186.181818-186.181818V186.181818c0-102.865455 83.316364-186.181818 186.181818-186.181818h651.636364c102.865455 0 186.181818 83.316364 186.181818 186.181818v651.636364c0 102.865455-83.316364 186.181818-186.181818 186.181818z" fill="#F78748" p-id="1963"></path><path d="M857.832727 835.258182H166.167273c-25.367273 0-46.08-21.643636-46.08-48.407273V649.309091c0-12.8 10.472727-23.272727 23.272727-23.272727s23.272727 10.472727 23.272727 23.272727v137.541818l690.967273 1.861818-0.465455-16.523636c0-12.8 10.472727-23.272727 23.272728-23.272727s23.272727 10.472727 23.272727 23.272727v14.661818c0 26.763636-20.48 48.407273-45.847273 48.407273zM880.407273 397.963636c-12.8 0-23.272727-10.472727-23.272728-23.272727v-135.68c0-2.327273-1.163636-3.490909-1.396363-3.723636H168.029091c0 0.232727-1.163636 1.396364-1.163636 3.723636v135.68c0 12.8-10.472727 23.272727-23.272728 23.272727s-23.272727-10.472727-23.272727-23.272727v-135.68c0-27.694545 21.410909-50.269091 47.709091-50.269091h687.941818c26.298182 0 47.709091 22.574545 47.709091 50.269091v135.68c0 12.8-10.472727 23.272727-23.272727 23.272727z" fill="#FFFFFF" p-id="1964"></path><path d="M143.592727 672.581818c-12.8 0-23.272727-10.472727-23.272727-23.272727s10.472727-23.272727 23.272727-23.272727c55.854545 0 101.003636-51.2 101.003637-114.036364s-45.381818-114.036364-101.003637-114.036364c-12.8 0-23.272727-10.472727-23.272727-23.272727s10.472727-23.272727 23.272727-23.272727c81.454545 0 147.549091 72.145455 147.549091 160.581818s-66.094545 160.581818-147.549091 160.581818zM880.407273 672.581818c-81.454545 0-147.549091-72.145455-147.549091-160.581818s66.327273-160.581818 147.549091-160.581818c12.8 0 23.272727 10.472727 23.272727 23.272727s-10.472727 23.272727-23.272727 23.272727c-55.854545 0-101.003636 51.2-101.003637 114.036364s45.381818 114.036364 101.003637 114.036364c12.8 0 23.272727 10.472727 23.272727 23.272727s-10.472727 23.272727-23.272727 23.272727z" fill="#FFFFFF" p-id="1965"></path><path d="M387.025455 707.258182c-12.8 0-23.272727-10.24-23.272728-23.04l-0.465454-46.545455c0-12.8 10.24-23.272727 23.04-23.505454h0.232727c12.8 0 23.272727 10.24 23.272727 23.04l0.465455 46.545454a23.109818 23.109818 0 0 1-23.272727 23.505455c0.232727 0 0.232727 0 0 0z m-0.93091-139.636364c-12.8 0-23.272727-10.24-23.272727-23.04l-0.465454-46.545454c0-12.8 10.24-23.272727 23.04-23.505455 13.032727-0.232727 23.272727 10.24 23.505454 23.04l0.465455 46.545455c0 13.032727-10.24 23.505455-23.272728 23.505454z m-1.163636-139.636363c-12.8 0-23.272727-10.24-23.272727-23.04l-0.465455-46.545455c0-12.8 10.24-23.272727 23.04-23.505455h0.232728c12.8 0 23.272727 10.24 23.272727 23.04l0.465454 46.545455a23.109818 23.109818 0 0 1-23.272727 23.505455c0.232727 0 0 0 0 0z" fill="#FFFFFF" p-id="1966"></path></svg>