<?xml version="1.0" standalone="no"?><!DOCTYPE svg PUBLIC "-//W3C//DTD SVG 1.1//EN" "http://www.w3.org/Graphics/SVG/1.1/DTD/svg11.dtd"><svg t="1700243917098" class="icon" viewBox="0 0 1024 1024" version="1.1" xmlns="http://www.w3.org/2000/svg" p-id="1143" xmlns:xlink="http://www.w3.org/1999/xlink" width="16" height="16"><path d="M837.818182 1024H186.181818c-102.865455 0-186.181818-83.316364-186.181818-186.181818V186.181818c0-102.865455 83.316364-186.181818 186.181818-186.181818h651.636364c102.865455 0 186.181818 83.316364 186.181818 186.181818v651.636364c0 102.865455-83.316364 186.181818-186.181818 186.181818z" fill="#FC5656" p-id="1144"></path><path d="M841.309091 814.778182l-126.138182-21.643637a2.862545 2.862545 0 0 0-3.258182 1.861819l-41.425454 121.250909c-0.698182 2.327273-3.956364 2.56-5.12 0.465454L509.672727 654.429091c-0.930909-1.396364-0.465455-3.258182 0.930909-3.956364l174.08-103.330909c1.396364-0.930909 3.258182-0.465455 3.956364 0.930909l155.694545 262.283637c1.163636 2.094545-0.465455 4.654545-3.025454 4.421818z" fill="#FC5656" p-id="1145"></path><path d="M667.927273 941.381818c-9.076364 0-17.687273-4.887273-22.574546-12.8l-160.814545-270.661818 2.094545-11.636364c1.629091-6.749091 6.050909-12.567273 12.101818-16.058181l173.847273-103.33091c12.334545-7.214545 28.392727-3.258182 35.84 9.076364l155.694546 262.283636c5.12 8.843636 4.887273 19.781818-0.930909 28.16s-16.058182 12.567273-26.065455 10.938182l-109.149091-18.618182-35.84 104.727273c-3.258182 9.541818-11.869091 16.523636-22.109091 17.454546-0.465455 0.465455-1.396364 0.465455-2.094545 0.465454z m-19.316364-32.814545zM539.927273 660.014545l122.88 206.894546 27.229091-79.36c4.189091-12.334545 16.523636-19.549091 29.090909-17.221818l82.618182 14.196363-122.88-206.894545-138.938182 82.385454z m305.338182 131.723637zM529.454545 642.327273c0 0.232727 0 0.232727 0 0z" fill="#FFFFFF" p-id="1146"></path><path d="M355.84 925.556364l-43.752727-120.32a2.862545 2.862545 0 0 0-3.258182-1.861819l-125.672727 24.203637c-2.327273 0.465455-4.189091-2.094545-3.025455-4.189091l150.574546-265.309091c0.698182-1.396364 2.56-1.861818 3.956363-1.163636l176.174546 99.84c1.396364 0.698182 1.861818 2.56 1.163636 3.956363l-150.574545 265.309091c-1.629091 2.094545-4.654545 1.861818-5.585455-0.465454z" fill="#FC5656" p-id="1147"></path><path d="M358.632727 950.690909h-2.094545a26.298182 26.298182 0 0 1-22.341818-17.221818l-37.934546-104.029091-108.683636 20.945455c-10.007273 1.861818-20.247273-2.327273-26.298182-10.472728-5.818182-8.145455-6.516364-19.316364-1.396364-28.16l150.574546-265.309091c6.981818-12.567273 23.04-16.989091 35.607273-9.774545l176.174545 99.84c12.567273 6.981818 16.989091 23.04 9.774545 35.607273l-150.574545 265.309091c-4.654545 8.145455-13.498182 13.265455-22.807273 13.265454z m19.083637-33.28z m-68.189091-137.541818c10.705455 0 20.712727 6.749091 24.436363 17.221818l28.625455 78.894546 118.690909-209.221819-140.567273-79.825454-118.690909 209.221818 82.385455-15.825455c1.629091-0.232727 3.490909-0.465455 5.12-0.465454z m3.723636 46.312727z m37.469091-256.930909z" fill="#FFFFFF" p-id="1148"></path><path d="M758.458182 542.72a288.954182 288.954182 0 0 1-247.156364 138.938182c-159.650909 0-289.28-129.396364-289.28-289.28S351.418182 103.330909 511.301818 103.330909c142.894545 0 261.818182 103.796364 285.090909 240.174546" fill="#FC5656" p-id="1149"></path><path d="M511.069091 704.930909c-172.218182 0-312.32-140.101818-312.32-312.32S338.850909 80.058182 511.069091 80.058182c152.669091 0 282.298182 109.149091 307.898182 259.490909a23.202909 23.202909 0 0 1-19.083637 26.763636 23.063273 23.063273 0 0 1-26.763636-19.083636c-21.876364-128-132.189091-220.625455-262.050909-220.625455-146.618182 0-265.774545 119.389091-265.774546 266.007273s119.156364 265.774545 265.774546 265.774546c93.556364 0 178.501818-47.709091 227.374545-127.767273 6.749091-10.938182 20.945455-14.429091 31.883637-7.68 10.938182 6.749091 14.429091 20.945455 7.68 31.883636-57.018182 94.021818-156.858182 150.109091-266.938182 150.109091z" fill="#FFFFFF" p-id="1150"></path><path d="M511.301818 392.378182m-184.552727 0a184.552727 184.552727 0 1 0 369.105454 0 184.552727 184.552727 0 1 0-369.105454 0Z" fill="#FC5656" p-id="1151"></path><path d="M511.069091 600.203636c-114.501818 0-207.825455-93.323636-207.825455-207.825454 0-114.734545 93.323636-207.825455 207.825455-207.825455 114.734545 0 207.825455 93.323636 207.825454 207.825455 0.232727 114.734545-93.090909 207.825455-207.825454 207.825454z m0-369.105454c-88.901818 0-161.28 72.378182-161.28 161.28s72.378182 161.28 161.28 161.28 161.28-72.378182 161.28-161.28-72.145455-161.28-161.28-161.28z" fill="#FFFFFF" p-id="1152"></path></svg>