<?xml version="1.0" standalone="no"?><!DOCTYPE svg PUBLIC "-//W3C//DTD SVG 1.1//EN" "http://www.w3.org/Graphics/SVG/1.1/DTD/svg11.dtd"><svg class="icon" width="16px" height="16.00px" viewBox="0 0 1024 1024" version="1.1" xmlns="http://www.w3.org/2000/svg"><path d="M0 0m273.066667 0l477.866666 0q273.066667 0 273.066667 273.066667l0 477.866666q0 273.066667-273.066667 273.066667l-477.866666 0q-273.066667 0-273.066667-273.066667l0-477.866666q0-273.066667 273.066667-273.066667Z" fill="#A46EFF" /><path d="M494.8992 648.533333a170.8544 170.8544 0 0 1 170.666667-170.666666 170.871467 170.871467 0 0 1 170.666666 170.666666 170.8544 170.8544 0 0 1-170.666666 170.666667 170.8544 170.8544 0 0 1-170.666667-170.666667z m124.586667 64.017067a143.786667 143.786667 0 0 0 13.892266 7.594667h0.187734v24.32a6.058667 6.058667 0 0 0 6.4 6.468266h51.2a6.0416 6.0416 0 0 0 6.365866-6.4V720.213333a41.762133 41.762133 0 0 0 12.407467-6.5536l0.802133-0.529066 0.8704-0.597334 20.48 12.8a9.352533 9.352533 0 0 0 3.037867 0.512 6.485333 6.485333 0 0 0 5.922133-3.054933l25.6-44.8a7.389867 7.389867 0 0 0-2.56-8.96l-20.48-12.817067v-15.36l20.48-12.8a5.4784 5.4784 0 0 0 3.618134-3.413333 6.4512 6.4512 0 0 0-1.058134-5.614933l-25.6-44.8a6.826667 6.826667 0 0 0-5.819733-3.413334 6.690133 6.690133 0 0 0-3.1232 0.768l-20.48 12.817067a135.287467 135.287467 0 0 0-13.4144-7.355733l-0.512-0.256h-0.170667v-24.337067a6.0416 6.0416 0 0 0-6.365866-6.314667h-51.2a6.058667 6.058667 0 0 0-6.382934 6.4v25.6a41.898667 41.898667 0 0 0-12.373333 6.5024l-1.706667 1.160534-20.48-12.8a7.8336 7.8336 0 0 0-4.2496-1.399467 5.12 5.12 0 0 0-4.7104 2.679467l-25.6 44.8a6.365867 6.365867 0 0 0-1.058133 5.597866 5.376 5.376 0 0 0 3.618133 3.413334l20.48 12.8v15.36l-20.48 12.817066a5.444267 5.444267 0 0 0-3.618133 3.413334 6.365867 6.365867 0 0 0 1.058133 5.597866l25.6 44.8a6.826667 6.826667 0 0 0 5.802667 3.413334 6.673067 6.673067 0 0 0 3.140267-0.785067l20.48-12.782933z m-382.532267 19.456c-20.206933-23.108267-15.940267-54.920533-11.008-91.784533 0.8192-5.9904 1.706667-12.202667 2.372267-18.449067a172.7488 172.7488 0 0 1 45.6704-103.185067 151.1424 151.1424 0 0 1 112.469333-43.1616 151.517867 151.517867 0 0 1 116.974933 48.008534 202.871467 202.871467 0 0 0-42.666666 125.098666 204.100267 204.100267 0 0 0 31.0272 108.407467 390.997333 390.997333 0 0 1-105.3696 11.0592c-80.4864 0-128-11.451733-149.469867-35.9936zM636.330667 648.533333a29.2864 29.2864 0 0 1 29.2352-29.252266 29.2864 29.2864 0 0 1 29.2864 29.252266 29.2864 29.2864 0 0 1-29.2864 29.252267 29.2864 29.2864 0 0 1-29.2352-29.252267z m-107.946667-152.029866a176.366933 176.366933 0 0 0-6.638933-6.724267 142.9504 142.9504 0 0 1 27.682133-9.915733 205.4656 205.4656 0 0 0-21.009067 16.64z m-13.960533-130.781867a73.1136 73.1136 0 0 1 73.0112-73.045333h0.1024a73.216 73.216 0 0 1 73.181866 73.1136 73.216 73.216 0 0 1-73.181866 73.1136 73.216 73.216 0 0 1-73.1136-73.198934z m-219.460267-18.312533a91.511467 91.511467 0 0 1 91.409067-91.409067 91.562667 91.562667 0 0 1 91.460266 91.460267 91.5456 91.5456 0 0 1-91.460266 91.409066 91.5456 91.5456 0 0 1-91.409067-91.460266z" fill="#FFFFFF" /></svg>