<?xml version="1.0" standalone="no"?><!DOCTYPE svg PUBLIC "-//W3C//DTD SVG 1.1//EN" "http://www.w3.org/Graphics/SVG/1.1/DTD/svg11.dtd"><svg class="icon" width="16px" height="10.32px" viewBox="0 0 1587 1024" version="1.1" xmlns="http://www.w3.org/2000/svg"><path d="M6.575 1017.606H1580.65V6.25H6.575v1011.5z m1577.363 3.287zM0 1024V0h1587.225v1024z" fill="#DEDEDE" /><path d="M3.324 1020.821h1580.614V681.607H3.324v339.214z" fill="#009942" /><path d="M3.324 342.32v339.287h1580.614V342.321H3.324z" fill="#FFFFFF" /><path d="M1583.938 3.143H3.324V342.32h1580.614V3.143z" fill="#F5A32D" /><path d="M925.668 465.001l-8.237-4.588 4.696-7.947 8.237 4.516-4.696 8.02z m8.056 34.572l-6.684-6.466 6.684-6.503 6.683 6.503-6.683 6.466z m-1.41 35.475l-4.768-8.02 8.2-4.48 4.77 7.876-8.201 4.624zM921.37 568.86l-2.42-8.85 9.14-2.349 2.456 8.85-9.176 2.349z" fill="#23297B" /><path d="M925.668 465.001l-8.237-4.588 4.696-7.947 8.237 4.516-4.696 8.02z m8.056 34.572l-6.684-6.466 6.684-6.503 6.683 6.503-6.683 6.466z m-1.41 35.475l-4.768-8.02 8.2-4.48 4.77 7.876-8.201 4.624zM921.37 568.86l-2.42-8.85 9.14-2.349 2.456 8.85-9.176 2.349zM780.734 376.603l-6.72 6.503-6.718-6.503 6.719-6.502 6.72 6.502z m36.775 1.445l-8.236 4.588-4.733-7.947 8.165-4.624 4.804 7.983z m35.005 10.477l-9.14 2.348-2.42-8.779 9.14-2.456 2.42 8.887z m31.068 18.893h-9.465v-9.067h9.465v9.067z m24.962 26.118l-9.175-2.348 2.492-8.886 9.14 2.384-2.457 8.85z m-6.755 165.417v-9.248h9.465v9.176l-9.465 0.072z m-26.985 24.023l2.42-8.85 9.176 2.384-2.457 8.85-9.14-2.384z m-32.549 16.51l4.805-7.948 8.164 4.588-4.696 7.947-8.273-4.588z m-35.8 7.838l6.72-6.466 6.682 6.466-6.683 6.43-6.719-6.43z m-36.74-1.372l8.274-4.624 4.696 7.911-8.2 4.588-4.77-7.875z m-35.076-10.513l9.175-2.456 2.42 8.85-9.139 2.385-2.456-8.779z m-31.068-19.038h9.465v9.176h-9.465v-9.176z m-24.926-26.01l9.176 2.385-2.493 8.85-9.14-2.456 2.457-8.779z m-17.087-31.428l8.2 4.587-4.769 7.912-8.2-4.516 4.769-7.983z m-8.165-34.572l6.756 6.466-6.756 6.394-6.683-6.394 6.683-6.466z m1.445-35.511l4.805 8.02-8.237 4.48-4.732-7.84 8.164-4.66z m10.946-33.885l2.457 8.85-9.14 2.385-2.456-8.779 9.14-2.456zM685.4 425.01l0.036 9.14h-9.5v-9.068l9.464-0.072z m26.95-24.06l-2.385 8.851-9.176-2.384 2.42-8.85 9.14 2.384z m32.584-16.58l-4.732 7.947-8.237-4.588 4.697-7.911 8.272 4.551z m45.662 127.16l4.046-54.08-4.37-81.462-3.939 81.534 4.263 54.007z m0 0l18.388-51.262 17.593-79.764-25.613 77.777-10.368 53.248z m0 0l31.501-44.868 38.473-72.72-45.626 68.674-24.348 48.913z m0 0l42.52-35.475 56.499-60.69-62.424 54.946-36.595 41.218z m0 0l50.575-23.735L912.05 443.4l-75.032 37.533-46.42 30.598z m0 0l55.2-10.296 80.377-25.18-82.545 17.485-53.032 17.99z m0 0l56.102 3.9 84.352-4.262-84.352-3.793-56.102 4.154z m0 0l53.176 17.737 82.654 17.015-80.559-24.746-55.27-10.007z" fill="#23297B" /><path d="M790.596 511.53l46.601 30.382 75.249 37.1-71.13-43.964-50.72-23.518z" fill="#23297B" /><path d="M790.596 511.53l36.848 41.002 62.785 54.657-56.933-60.364-42.7-35.295z m0 0l24.601 48.878 46.06 68.384-38.835-72.43-31.826-44.832z m0 0l10.73 53.285 26.082 77.632-18.099-79.691-18.713-51.226z m0 0l-3.901 54.116 4.37 81.534 3.902-81.534-4.37-54.116z m0 0l-18.28 51.334-17.556 79.8 25.54-77.777 10.296-53.357z" fill="#23297B" /><path d="M790.596 511.53l-31.392 44.976-38.401 72.684 45.59-68.71 24.203-48.95z" fill="#23297B" /><path d="M790.596 511.53l-42.338 35.584-56.572 60.617 62.424-54.982 36.486-41.219z m0 0l-50.466 23.735-70.878 44.506 75.068-37.534 46.276-30.707z" fill="#23297B" /><path d="M790.596 511.53l-55.09 10.332-80.343 25.18 82.51-17.485 52.923-18.027z" fill="#23297B" /><path d="M790.596 511.53l-55.957-3.865-84.389 4.263 84.425 3.829 55.921-4.227z" fill="#23297B" /><path d="M790.596 511.53l-52.995-17.665-82.654-16.979 80.486 24.674 55.163 9.97z m0 0l-46.457-30.38-75.32-36.993 71.166 43.964 50.611 23.41z m0 0l-36.703-40.965-62.857-54.55L748.04 476.2l42.555 35.33z m0 0l-24.456-48.768-46.06-68.457 38.798 72.503 31.718 44.722z m0 0l-10.548-53.248-26.155-77.633 18.099 79.764 18.604 51.117z" fill="#23297B" /><path d="M757.036 643.748c-75.32-19.544-120.08-94.359-99.85-167.078s97.538-115.925 173.003-96.49 119.9 94.358 99.814 167.114-97.538 115.925-172.967 96.454z m77.813-280.439c-85.002-22.036-172.46 26.733-195.075 108.809s27.708 166.609 112.71 188.573S924.91 633.994 947.74 551.774 920.032 385.31 834.994 363.309z" fill="#23297B" /><path d="M821.05 519.117a28.647 28.647 0 0 1-34.789 19.399 27.419 27.419 0 0 1-20.085-33.669 28.43 28.43 0 0 1 34.788-19.29 27.274 27.274 0 0 1 20.086 33.56z m31.464-130.592l-9.14 2.348-2.42-8.779 9.14-2.456 2.42 8.887z m31.068 18.893h-9.465v-9.067h9.465v9.067z m24.962 26.118l-9.175-2.348 2.492-8.886 9.14 2.384-2.457 8.85z m-6.755 165.417v-9.248h9.465v9.176l-9.465 0.072z m-26.985 24.023l2.42-8.85 9.176 2.384-2.457 8.85-9.14-2.384z m-32.549 16.51l4.805-7.948 8.164 4.588-4.696 7.947-8.273-4.588z m-35.8 7.838l6.72-6.466 6.682 6.466-6.683 6.43-6.719-6.43z m-36.74-1.372l8.274-4.624 4.696 7.911-8.2 4.588-4.77-7.875z m-35.076-10.513l9.175-2.456 2.42 8.85-9.139 2.385-2.456-8.779z m-31.068-19.038h9.465v9.176h-9.465v-9.176z m-24.926-26.01l9.176 2.385-2.493 8.85-9.14-2.456 2.457-8.779z m-17.087-31.428l8.2 4.587-4.769 7.912-8.2-4.516 4.769-7.983z m-8.165-34.572l6.756 6.466-6.756 6.394-6.683-6.394 6.683-6.466z m1.445-35.511l4.805 8.02-8.237 4.48-4.732-7.84 8.164-4.66z m10.946-33.885l2.457 8.85-9.14 2.385-2.456-8.779 9.14-2.456zM685.4 425.01l0.036 9.14h-9.5v-9.068l9.464-0.072z m26.95-24.06l-2.385 8.851-9.176-2.384 2.42-8.85 9.14 2.384z m32.584-16.58l-4.732 7.947-8.237-4.588 4.697-7.911 8.272 4.551z m35.8-7.768l-6.72 6.503-6.718-6.503 6.719-6.502 6.72 6.502z" fill="#23297B" /></svg>