<?xml version="1.0" standalone="no"?><!DOCTYPE svg PUBLIC "-//W3C//DTD SVG 1.1//EN" "http://www.w3.org/Graphics/SVG/1.1/DTD/svg11.dtd"><svg class="icon" width="16px" height="16.00px" viewBox="0 0 1024 1024" version="1.1" xmlns="http://www.w3.org/2000/svg"><path d="M0 0m228.968944 0l566.062112 0q228.968944 0 228.968944 228.968944l0 566.062112q0 228.968944-228.968944 228.968944l-566.062112 0q-228.968944 0-228.968944-228.968944l0-566.062112q0-228.968944 228.968944-228.968944Z" fill="#FF9D5E" /><path d="M284.93913 455.393789h455.393789l-12.214221 294.371379a12.720497 12.720497 0 0 1-12.71032 12.192596H309.863672a12.720497 12.720497 0 0 1-12.71032-12.192596L284.93913 455.393789z" fill="#FFFFFF" /><path d="M241.689441 325.64472m6.360248 0l529.172671 0q6.360248 0 6.360249 6.360249l0 117.028571q0 6.360248-6.360249 6.360249l-529.172671 0q-6.360248 0-6.360248-6.360249l0-117.028571q0-6.360248 6.360248-6.360249Z" fill="#FFFFFF" /><path d="M487.195031 541.893168m25.440994 0l0 0q25.440994 0 25.440994 25.440993l0 81.796612q0 25.440994-25.440994 25.440993l0 0q-25.440994 0-25.440994-25.440993l0-81.796612q0-25.440994 25.440994-25.440993Z" fill="#FF9D5E" /><path d="M515.986604 283.299458l-63.114018-58.210265c-13.543513-12.491528-34.651906-11.643071-47.148521 1.894082-12.496616 13.535881-11.648159 34.635369 1.894082 47.125624l78.208159 72.131578a33.42565 33.42565 0 0 0 7.234146 5.089471c12.579299 12.763747 33.113998 13.331081 46.385292 1.091418l78.208159-72.131577c13.542241-12.490256 14.390698-33.589744 1.894082-47.125625-12.496616-13.537153-33.605009-14.38561-47.148522-1.894082l-56.412859 52.029376z" fill="#FFFFFF" opacity=".4" /></svg>