<?xml version="1.0" standalone="no"?><!DOCTYPE svg PUBLIC "-//W3C//DTD SVG 1.1//EN" "http://www.w3.org/Graphics/SVG/1.1/DTD/svg11.dtd"><svg class="icon" width="28px" height="28.00px" viewBox="0 0 1024 1024" version="1.1" xmlns="http://www.w3.org/2000/svg"><path  fill="#03c3ec" d="M505.105067 0C326.280533 0 179.131733 147.1488 179.131733 325.973333c0 178.824533 147.1488 325.973333 325.973334 325.973334h10.922666v-98.747734h-10.922666c-124.603733 0-227.1232-102.519467-227.1232-227.1232S380.501333 98.952533 505.105067 98.952533c124.5696 0 227.089067 102.485333 227.1232 227.054934v10.922666h98.730666v-10.922666C830.8224 147.268267 683.844267 0.221867 505.105067 0z"  /><path fill="#03c3ec" d="M505.105067 372.258133h-10.922667v98.730667h10.939733c124.603733 0 227.1232 102.519467 227.1232 227.1232s-102.519467 227.1232-227.1232 227.1232c-124.586667 0-227.106133-102.519467-227.1232-227.106133v-10.922667H179.268267v10.922667c0.017067 178.7392 147.0976 325.802667 325.8368 325.802666 178.756267 0 325.8368-147.080533 325.8368-325.8368 0-178.756267-147.080533-325.8368-325.8368-325.8368z"  /></svg>
