<?xml version="1.0" standalone="no"?><!DOCTYPE svg PUBLIC "-//W3C//DTD SVG 1.1//EN" "http://www.w3.org/Graphics/SVG/1.1/DTD/svg11.dtd"><svg class="icon" width="16px" height="10.11px" viewBox="0 0 1621 1024" version="1.1" xmlns="http://www.w3.org/2000/svg"><path d="M99.84 0C44.544 0 0 38.912 0 87.04v849.92c0 48.128 44.544 87.04 99.84 87.04h1414.656c58.88 0 107.008-38.912 107.008-87.04V87.04c0-48.128-47.616-87.04-107.008-87.04H99.84z" fill="#333333" /><path d="M894.976 512c0 175.616-142.336 317.952-317.952 317.952S259.072 687.616 259.072 512s142.336-317.952 317.952-317.952 317.952 142.336 317.952 317.952" fill="#D9222A" /><path d="M1004.032 194.048c-81.92 0-157.184 31.232-213.504 82.432-11.264 10.24-22.016 21.504-32.256 33.792h64c8.704 10.752 16.896 22.016 24.064 33.792h-112.64c-6.656 10.752-12.8 22.016-18.432 33.792H865.28c5.12 10.752 9.728 22.016 13.312 33.792h-176.128c-3.584 11.264-6.656 22.528-9.216 33.792h194.56c4.608 22.016 7.168 44.544 7.168 67.072 0 35.328-5.632 69.12-16.384 100.864h-176.128c3.584 11.264 8.192 22.528 13.312 33.792H865.28c-5.632 11.776-11.776 23.04-18.432 33.792h-112.64c7.168 11.776 15.36 23.04 24.064 33.792h64c-9.728 11.776-20.48 23.04-32.256 33.792 56.32 51.2 131.072 82.432 213.504 82.432 175.616 0 317.952-142.336 317.952-317.952 0.512-176.64-141.824-318.976-317.44-318.976" fill="#EE9F2D" /><path d="M428.032 595.456h-34.304l19.968-123.904-44.032 123.904h-23.552L343.04 472.064l-20.992 123.392h-32.256l27.136-161.28h49.664l1.536 99.84 33.28-99.84h53.76l-27.136 161.28M513.024 537.088c-3.584-0.512-5.12-0.512-7.68-0.512-19.456 0-29.696 6.656-29.696 19.968 0 8.192 4.608 13.312 12.288 13.312 14.336 0 24.064-13.312 25.088-32.768z m25.088 58.368h-28.672l0.512-13.824c-8.704 10.752-20.48 15.872-36.352 15.872-18.944 0-31.744-14.848-31.744-35.84 0-31.744 22.528-50.688 60.416-50.688 4.096 0 8.704 0.512 13.824 1.024 1.024-4.096 1.536-6.144 1.536-8.704 0-8.704-6.144-11.776-22.016-11.776-16.896 0-30.72 4.096-36.352 5.632 0.512-2.048 4.608-29.696 4.608-29.696 17.408-5.12 28.672-7.168 41.472-7.168 29.696 0 45.568 13.312 45.568 38.4 0 6.656-1.024 14.848-2.56 26.112-3.072 20.48-9.728 60.928-10.24 70.656z m462.848-156.672l-5.632 34.816c-12.288-6.144-21.504-8.704-30.72-8.704-25.6 0-44.032 25.088-44.032 60.416 0 24.576 12.288 39.424 32.256 39.424 8.704 0 17.92-2.56 29.184-8.192l-6.144 36.864c-12.8 3.584-20.992 4.608-30.72 4.608-37.376 0-60.416-26.624-60.416-69.632 0-57.856 31.744-97.792 77.824-97.792 15.36 0 33.28 6.144 38.4 8.192m55.808 98.304c-3.584-0.512-5.12-0.512-7.68-0.512-19.456 0-29.696 6.656-29.696 19.968 0 8.192 4.608 13.312 12.288 13.312 14.336 0 24.576-13.312 25.088-32.768z m25.088 58.368h-28.672l0.512-13.824c-8.704 10.752-20.48 15.872-36.352 15.872-18.944 0-31.744-14.848-31.744-35.84 0-31.744 22.528-50.688 60.416-50.688 4.096 0 8.704 0.512 13.824 1.024 1.024-4.096 1.536-6.144 1.536-8.704 0-8.704-6.144-11.776-22.016-11.776-16.896 0-30.72 4.096-36.352 5.632 0.512-2.048 4.608-29.696 4.608-29.696 17.408-5.12 28.672-7.168 41.472-7.168 29.696 0 45.568 13.312 45.568 38.4 0 6.656-1.024 14.848-2.56 26.112-3.072 20.48-9.216 60.928-10.24 70.656zM691.2 593.92c-9.216 3.072-16.896 4.096-24.576 4.096-17.408 0-27.136-10.24-27.136-28.672 0-5.632 2.56-20.992 4.608-34.816 2.048-12.288 14.848-89.6 14.848-89.6h34.304l-4.096 19.968h17.408l-4.608 31.744h-17.92c-4.096 25.088-9.728 55.808-9.728 59.904 0 6.656 3.584 9.728 11.776 9.728 4.096 0 7.168-0.512 9.216-1.024l-4.096 28.672m105.472-1.024c-11.776 3.584-23.04 5.12-35.328 5.12-38.4 0-58.368-19.968-58.368-58.368 0-45.056 25.6-77.824 59.904-77.824 28.16 0 46.592 18.432 46.592 47.616 0 9.728-1.024 18.944-4.096 32.256H737.28c-2.56 18.944 9.728 27.136 29.696 27.136 12.288 0 23.552-2.56 35.84-8.192l-6.144 32.256z m-19.456-77.824c0-2.56 3.584-23.552-15.872-23.552-10.752 0-18.944 8.192-22.016 23.552h37.888z m-218.624-9.216c0 16.384 8.192 28.16 26.112 36.864 13.824 6.656 16.384 8.704 16.384 14.336 0 8.192-6.144 11.776-19.968 11.776-10.24 0-19.968-1.536-30.72-5.12 0 0-4.608 28.672-4.608 30.208 7.68 1.536 14.848 3.072 35.84 4.096 36.352 0 53.248-13.824 53.248-44.032 0-17.92-7.168-28.672-24.576-36.352-14.336-6.656-16.384-8.192-16.384-14.336 0-7.168 5.632-10.752 16.896-10.752 6.656 0 15.872 0.512 24.576 2.048l5.12-30.208c-8.704-1.536-22.528-2.56-30.208-2.56-38.4 0-51.712 19.968-51.712 44.032M1264.64 595.456h-32.768l1.536-12.288c-9.216 10.24-18.944 14.336-31.744 14.336-25.088 0-41.472-21.504-41.472-54.272 0-43.52 25.6-80.384 56.32-80.384 13.312 0 23.552 5.632 32.768 17.92l7.68-46.592h33.792l-26.112 161.28z m-51.2-30.208c15.872 0 27.136-18.432 27.136-44.032 0-16.896-6.656-25.6-18.432-25.6-15.872 0-26.624 18.432-26.624 44.032 0.512 16.896 6.144 25.6 17.92 25.6z m-100.352-100.864c-4.096 40.448-11.776 81.92-17.92 122.368l-1.536 8.704h34.304c12.288-80.384 15.36-95.744 34.816-93.696 3.072-16.384 8.704-30.72 13.312-37.888-14.336-3.072-22.528 5.12-33.28 20.48 1.024-6.656 2.56-13.312 2.048-19.968h-31.744m-284.16 0c-4.096 40.448-11.776 81.92-17.92 122.368l-1.536 8.704h34.304c12.288-80.384 15.36-95.744 34.816-93.696 3.072-16.384 8.704-30.72 13.312-37.888-14.336-3.072-22.528 5.12-33.28 20.48 1.024-6.656 2.56-13.312 2.048-19.968h-31.744m450.56 120.832c0-5.632 4.608-10.24 10.24-10.24s10.24 4.608 10.24 10.24-4.608 10.24-10.24 10.24c-5.12 0.512-10.24-4.096-10.24-10.24 0 0.512 0 0.512 0 0z m10.24 8.192c4.096 0 7.68-3.584 7.68-7.68s-3.584-7.68-7.68-7.68-7.68 3.584-7.68 7.68 3.584 7.68 7.68 7.68z m-1.024-3.584h-2.048v-9.216h3.584c1.024 0 1.536 0 2.048 0.512 0.512 0.512 1.024 1.536 1.024 2.048 0 1.024-0.512 2.048-1.536 2.56l1.536 4.096h-2.56l-1.536-3.584h-1.536l1.024 3.584z m0-5.12h2.56c0.512 0 0.512-0.512 0.512-1.024s0-0.512-0.512-1.024h-2.56v2.048z" fill="#FFFFFF" /></svg>