<?xml version="1.0" standalone="no"?><!DOCTYPE svg PUBLIC "-//W3C//DTD SVG 1.1//EN" "http://www.w3.org/Graphics/SVG/1.1/DTD/svg11.dtd"><svg class="icon" width="16px" height="16.00px" viewBox="0 0 1024 1024" version="1.1" xmlns="http://www.w3.org/2000/svg"><path fill="#74de3b" d="M343.519658 223.455777c-56.671944 66.815933-93.279907 165.663835-95.839905 276.479725v24.062976c2.591997 110.84789 39.167961 209.567791 95.839905 276.447725 73.439927 95.391905 182.559818 155.899845 304.607696 155.899844 74.911925 0 145.055856-22.911977 205.087796-62.751937A508.953493 508.953493 0 0 1 511.99949 1023.99798c-8.191992 0-16.351984-0.16-24.319976-0.607999C216.063785 1010.718993 0 786.591216 0 511.99849c0-282.846718 229.247772-511.99949 511.99949-511.99949h1.919998a510.599491 510.599491 0 0 1 339.327662 130.33687c-60.06394-39.67996-130.17587-62.751937-205.215795-62.751937-121.951879 0-231.13577 60.57594-304.639697 155.899844zM1023.99898 511.96749c0 151.711849-65.919934 287.899713-170.75183 381.66362-131.327869 63.999936-253.699747 19.231981-294.239707-8.735991C687.999315 856.575147 785.439218 700.575302 785.439218 511.99849c0-188.671812-97.407903-344.543657-226.431775-372.899629 40.47996-27.899972 162.911838-72.671928 294.239707-8.735991A510.361492 510.361492 0 0 1 1023.99898 512.03149z"  /></svg>