<?xml version="1.0" standalone="no"?><!DOCTYPE svg PUBLIC "-//W3C//DTD SVG 1.1//EN" "http://www.w3.org/Graphics/SVG/1.1/DTD/svg11.dtd"><svg class="icon" width="20px" height="20.00px" viewBox="0 0 1024 1024" version="1.1" xmlns="http://www.w3.org/2000/svg"><path d="M0 0m102.4 0l819.2 0q102.4 0 102.4 102.4l0 819.2q0 102.4-102.4 102.4l-819.2 0q-102.4 0-102.4-102.4l0-819.2q0-102.4 102.4-102.4Z" fill="#3388FF" opacity=".1" /><path d="M692.5696 379.3408a110.4896 110.4896 0 0 0-31.9744-78.1568 108.1856 108.1856 0 0 0-147.52-6.4 108.1856 108.1856 0 0 0-147.52 6.4 111.104 111.104 0 0 0-31.9744 78.1568c0 29.3504 11.52 57.4848 31.9744 78.1568l137.984 139.7376a13.376 13.376 0 0 0 19.0592 0l137.984-139.7376a110.4768 110.4768 0 0 0 31.9872-78.1568z" fill="#1269FF" opacity=".5" /><path d="M788.8 423.8848a21.248 21.248 0 0 0-24.0384 15.4368c-14.976 54.5152-50.8544 100.5312-81.5616 130.5472 0.5632-4.7616 0.96-9.5488 1.1648-14.336a21.5296 21.5296 0 0 0-10.3552-19.392l-4.1216-2.432a13.376 13.376 0 0 0-13.696 0.064l-3.9168 2.368c-136.1152 82.0864-127.616 205.6192-127.1808 210.8416l0.3456 3.7248c0.3328 3.712 2.2016 7.1168 5.1584 9.3824l5.5424 4.2752c3.008 2.3168 6.8352 3.2512 10.56 2.5728l3.264-0.5888c101.9904-18.432 174.4-65.7792 215.2192-140.736 33.4208-61.3888 37.6832-126.6944 40.2432-165.7088 0.2944-4.7744 0.5888-9.1776 0.896-12.992a21.3376 21.3376 0 0 0-17.3056-22.976l-0.2176-0.0512zM349.9904 536.1536l-4.1984 2.5856a13.376 13.376 0 0 0-6.3616 11.9424l0.2048 4.8384c0.192 4.5568 0.5888 9.3824 1.1648 14.3744-30.7072-30.016-66.56-75.968-81.4976-130.3296a21.1456 21.1456 0 0 0-24.0128-15.68l-0.2048 0.0384a21.4272 21.4272 0 0 0-17.408 22.8736c0.3072 3.968 0.5888 8.32 0.896 13.1072 2.56 39.0016 6.8224 104.32 40.2432 165.7088 40.832 74.9568 113.2288 122.3168 215.2448 140.7488l3.5456 0.6016c3.7888 0.64 7.6544-0.384 10.6368-2.7776l5.5424-4.48c2.944-2.3552 4.736-5.8624 4.9664-9.6256l0.2048-3.4304c0.64-8.8832 6.7584-129.6896-127.168-210.4576a20.992 20.992 0 0 0-21.7984-0.0384z" fill="#1269FF" /><path d="M484.7104 328.6272l0.5632 0.896 26.7776 50.7904 28.7744-50.752c1.7408-3.1104 4.6336-5.376 8.0256-6.3232 3.392-0.9216 7.0144-0.4352 10.048 1.3568 3.0592 1.7792 5.2864 4.7232 6.208 8.192 0.9088 3.456 0.4352 7.1424-1.344 10.24l-23.0784 37.1456H573.44c7.36 0 13.2224 5.9904 13.2224 13.4656a13.3248 13.3248 0 0 1-12.288 13.4656l-0.9344 0.0256-47.1296-1.1776v23.424l47.1296-0.0256c7.36 0 13.2224 6.016 13.2224 13.4784a13.3248 13.3248 0 0 1-12.288 13.4656l-0.9344 0.0256h-47.1296v41.856a13.3248 13.3248 0 0 1-12.288 13.4528l-0.9344 0.0256a13.2864 13.2864 0 0 1-13.2224-12.5056l-0.0512-0.96 0.0512-41.0368-47.1808-0.832a13.056 13.056 0 0 1-9.3568-3.9296 13.568 13.568 0 0 1-3.8656-9.536 13.3248 13.3248 0 0 1 12.288-13.4784l0.9344-0.0256 47.1296 0.0256 0.0512-22.2848-47.1808 0.0384a13.056 13.056 0 0 1-9.3568-3.9296 13.568 13.568 0 0 1-3.8656-9.536 13.3248 13.3248 0 0 1 12.288-13.4784l0.9344-0.0128 31.1296 0.128-21.44-37.2736a13.6448 13.6448 0 0 1-1.3568-10.24c0.896-3.456 3.1232-6.4 6.1824-8.192a13.0304 13.0304 0 0 1 17.536 4.032z" fill="#FFFFFF" /></svg>