<?xml version="1.0" standalone="no"?><!DOCTYPE svg PUBLIC "-//W3C//DTD SVG 1.1//EN" "http://www.w3.org/Graphics/SVG/1.1/DTD/svg11.dtd"><svg class="icon" width="16px" height="9.94px" viewBox="0 0 1649 1024" version="1.1" xmlns="http://www.w3.org/2000/svg"><path d="M0 0h1649.778v1024H0z" fill="#429BD8" /><path d="M1095.111 329.956H989.867c-5.69 0-14.223 5.688-14.223 11.377l-42.666 270.223c0 5.688 2.844 8.533 8.533 8.533h54.045c5.688 0 8.533-2.845 8.533-8.533l11.378-76.8c0-5.69 5.689-11.378 14.222-11.378h34.133c68.267 0 108.09-34.134 119.467-99.556 5.689-28.444 0-51.2-14.222-68.266-11.378-17.067-36.978-25.6-73.956-25.6z m11.378 99.555c-5.689 36.978-34.133 36.978-62.578 36.978h-17.067l11.378-71.111c0-2.845 2.845-8.534 8.534-8.534h5.688c19.912 0 36.978 0 45.512 11.378 11.377 8.534 11.377 17.067 8.533 31.29z m-762.311-99.555H238.933c-5.689 0-14.222 5.688-14.222 11.377l-42.667 270.223c0 5.688 2.845 8.533 8.534 8.533h51.2c5.689 0 14.222-5.689 14.222-11.378l11.378-73.955c0-5.69 5.689-11.378 14.222-11.378h31.289c68.267 0 108.089-34.134 119.467-99.556 5.688-28.444 0-51.2-14.223-68.266-11.377-17.067-36.977-25.6-73.955-25.6z m11.378 99.555c-5.69 36.978-34.134 36.978-62.578 36.978h-14.222l11.377-71.111c0-2.845 2.845-8.534 8.534-8.534h5.689c19.91 0 36.977 0 45.51 11.378 8.534 8.534 8.534 17.067 5.69 31.29z m304.355-2.844h-51.2c-2.844 0-8.533 2.844-8.533 8.533l-2.845 14.222-2.844-5.689c-11.378-14.222-34.133-19.91-59.733-19.91-56.89 0-102.4 42.666-113.778 102.4-5.69 28.444 2.844 56.888 19.91 76.8 14.223 17.066 36.979 25.6 62.579 25.6 45.51 0 68.266-28.445 68.266-28.445L568.89 614.4c0 5.689 2.844 8.533 8.533 8.533h48.356c5.689 0 14.222-5.689 14.222-11.377l28.444-173.512c0-5.688-2.844-11.377-8.533-11.377zM588.8 526.222c-5.689 28.445-28.444 48.356-56.889 48.356-14.222 0-25.6-5.69-34.133-14.222-8.534-8.534-11.378-19.912-8.534-34.134 5.69-28.444 28.445-48.355 56.89-48.355 14.222 0 25.6 5.689 34.133 14.222 8.533 8.533 11.377 19.911 8.533 34.133z m822.044-99.555h-51.2c-2.844 0-8.533 2.844-8.533 8.533l-2.844 14.222-2.845-5.689c-11.378-14.222-34.133-19.91-59.733-19.91-56.889 0-102.4 42.666-113.778 102.4-5.689 28.444 2.845 56.888 19.911 76.8 14.222 17.066 36.978 25.6 62.578 25.6 45.511 0 68.267-28.445 68.267-28.445l-2.845 14.222c0 5.689 2.845 8.533 8.534 8.533h45.51c5.69 0 14.223-5.689 14.223-11.377l28.444-173.512c2.845-5.688 0-11.377-5.689-11.377z m-71.11 99.555c-5.69 28.445-28.445 48.356-56.89 48.356-14.222 0-25.6-5.69-34.133-14.222s-11.378-19.912-8.533-34.134c5.689-28.444 28.444-48.355 56.889-48.355 14.222 0 25.6 5.689 34.133 14.222 8.533 8.533 11.378 19.911 8.533 34.133z m-412.445-99.555h-51.2c-5.689 0-8.533 2.844-11.378 5.689l-71.111 102.4-28.444-99.556c-2.845-5.689-8.534-11.378-14.223-11.378h-48.355c-5.69 0-11.378 5.69-8.534 11.378l56.89 164.978-51.2 73.955c-2.845 5.69 0 14.223 5.688 14.223h51.2c5.69 0 8.534-2.845 11.378-5.69l167.822-244.622c2.845-2.844 0-11.377-8.533-11.377z m543.289-88.178L1427.91 614.4c0 5.689 2.845 8.533 8.533 8.533h42.667c5.689 0 14.222-5.689 14.222-11.377L1536 341.333c0-5.689-2.844-8.533-8.533-8.533h-48.356c-5.689-2.844-8.533 0-8.533 5.689z" fill="#FFFFFF" /></svg>