<?xml version="1.0" standalone="no"?><!DOCTYPE svg PUBLIC "-//W3C//DTD SVG 1.1//EN" "http://www.w3.org/Graphics/SVG/1.1/DTD/svg11.dtd"><svg class="icon" width="16px" height="16.00px" viewBox="0 0 1024 1024" version="1.1" xmlns="http://www.w3.org/2000/svg"><path d="M153.6 0h563.2l204.8 204.8v768a51.2 51.2 0 0 1-51.2 51.2H153.6a51.2 51.2 0 0 1-51.2-51.2V51.2a51.2 51.2 0 0 1 51.2-51.2z" fill="#E52B0E" /><path d="M716.8 0l204.8 204.8h-153.6a51.2 51.2 0 0 1-51.2-51.2z" fill="#F9A6A0" /><path d="M348.416 778.752h-3.84a33.28 33.28 0 0 1-32-24.064A66.816 66.816 0 0 1 351.232 691.2a483.84 483.84 0 0 1 79.36-34.304c11.264-21.504 20.224-41.216 25.6-53.504l2.304-4.608c10.24-22.272 19.2-42.496 25.6-60.416a301.568 301.568 0 0 1-25.6-66.56c-11.008-49.664 2.56-83.968 22.016-92.16a34.56 34.56 0 0 1 34.304 2.048c15.104 10.496 22.272 34.048 20.992 68.096a296.192 296.192 0 0 1-23.296 87.04c11.264 21.248 23.04 40.704 30.976 53.504l4.096 6.912A143.872 143.872 0 0 0 563.2 614.4a432.384 432.384 0 0 1 68.608-12.032 62.72 62.72 0 0 1 64.256 32.768 37.888 37.888 0 0 1-17.664 44.032 58.112 58.112 0 0 1-46.592 7.68 165.888 165.888 0 0 1-76.8-44.032c-34.56 8.96-72.448 20.736-105.984 32.512-30.976 59.136-65.024 103.424-100.608 103.424zM411.648 691.2a342.528 342.528 0 0 0-46.592 21.504c-21.76 13.568-29.184 29.952-27.648 36.864 0 2.816 3.84 4.352 9.216 4.864 20.224 0 44.288-29.696 65.024-63.232z m173.312-53.76a130.816 130.816 0 0 0 51.2 25.6 33.28 33.28 0 0 0 25.6-3.328c4.864-3.584 10.496-8.96 8.448-14.848a39.168 39.168 0 0 0-38.656-15.616 367.104 367.104 0 0 0-46.592 6.912z m-84.48-70.144c-5.632 13.056-11.776 27.136-18.688 41.984l-2.304 4.864c-4.608 10.24-9.472 20.736-14.336 30.72 23.04-7.68 47.104-14.848 70.144-21.248a132.096 132.096 0 0 1-8.96-13.056l-4.352-6.912c-5.888-11.008-13.568-23.552-21.504-37.632z m-3.328-165.632a17.664 17.664 0 0 0-6.144 1.536c-4.096 1.792-16.128 22.016-7.168 63.232a242.432 242.432 0 0 0 13.568 38.656 220.928 220.928 0 0 0 13.312-56.32c1.28-28.16-4.608-42.24-9.984-45.824a4.352 4.352 0 0 0-3.584-2.56z" fill="#FFFFFF" /></svg>