<?xml version="1.0" standalone="no"?><!DOCTYPE svg PUBLIC "-//W3C//DTD SVG 1.1//EN" "http://www.w3.org/Graphics/SVG/1.1/DTD/svg11.dtd"><svg class="icon" width="16px" height="16.00px" viewBox="0 0 1024 1024" version="1.1" xmlns="http://www.w3.org/2000/svg"><path fill="#667685" d="M853.8 195.4l-328-120.9a39.3 39.3 0 0 0-27.6 0l-328 120.9a39.9 39.9 0 0 0-26.2 37.5v411.4a39.9 39.9 0 0 0 14.7 30.9l328 267.8a40.1 40.1 0 0 0 50.6 0l328-267.8a39.9 39.9 0 0 0 14.7-30.9V232.9a39.9 39.9 0 0 0-26.2-37.5zM808 629.1L512 870.7 216 629.1V255.2l296-109.1 296 109.1zM400 400a112.1 112.1 0 0 0 80 107.4V700a4 4 0 0 0 4 4h56a4 4 0 0 0 4-4v-76h92a4 4 0 0 0 4-4v-56a4 4 0 0 0-4-4h-92v-52.6A112 112 0 1 0 400 400z m112-48a48 48 0 1 1-48 48 48 48 0 0 1 48-48z" /></svg>