<?xml version="1.0" standalone="no"?><!DOCTYPE svg PUBLIC "-//W3C//DTD SVG 1.1//EN" "http://www.w3.org/Graphics/SVG/1.1/DTD/svg11.dtd"><svg class="icon" width="16px" height="16.00px" viewBox="0 0 1024 1024" version="1.1" xmlns="http://www.w3.org/2000/svg"><path fill="#667685" d="M840.48 192H704v-56a24 24 0 0 0-48 0v56H368v-56a24 24 0 0 0-48 0v56H183.52A72 72 0 0 0 112 263.52v576.96a72 72 0 0 0 71.52 71.52h656.96a72 72 0 0 0 71.52-71.52V263.52a72 72 0 0 0-71.52-71.52z m23.52 648.48a23.52 23.52 0 0 1-23.52 23.52H183.52a23.52 23.52 0 0 1-23.52-23.52V448h704zM864 400H160V263.52A23.52 23.52 0 0 1 183.52 240H320v56a24 24 0 0 0 48 0v-56h288v56a24 24 0 0 0 48 0v-56h136.48a23.52 23.52 0 0 1 23.52 23.52z"  /><path fill="#667685" d="M264 544m24 0l208 0q24 0 24 24l0 0q0 24-24 24l-208 0q-24 0-24-24l0 0q0-24 24-24Z"  /><path fill="#667685" d="M264 688m24 0l320 0q24 0 24 24l0 0q0 24-24 24l-320 0q-24 0-24-24l0 0q0-24 24-24Z"  /></svg>