<?xml version="1.0" standalone="no"?><!DOCTYPE svg PUBLIC "-//W3C//DTD SVG 1.1//EN" "http://www.w3.org/Graphics/SVG/1.1/DTD/svg11.dtd"><svg class="icon" width="16px" height="16.00px" viewBox="0 0 1024 1024" version="1.1" xmlns="http://www.w3.org/2000/svg"><path d="M716.8 0H307.2C137.5488 0 0 137.5488 0 307.2v409.6c0 169.6512 137.5488 307.2 307.2 307.2h409.6c169.6512 0 307.2-137.5488 307.2-307.2V307.2c0-169.6512-137.5488-307.2-307.2-307.2z" fill="#E3F0FF" /><path d="M291.4048 261.8112a25.6 25.6 0 0 1 16.2304-5.8112h383.1296a25.6 25.6 0 0 1 16.2304 5.8112l31.232 25.6c18.5856 15.232 7.808 45.3888-16.2304 45.3888H276.4032c-24.064 0-34.816-30.1568-16.2304-45.3888l31.232-25.6z" fill="#6CB0FF" /><path d="M259.7376 358.4a25.6 25.6 0 0 0-25.3696 29.056l31.4112 230.4a25.6 25.6 0 0 0 25.344 22.144h416.128a25.6 25.6 0 0 0 25.344-22.144l31.4368-230.4a25.6 25.6 0 0 0-25.344-29.056h-478.976zM332.8 409.6h307.2a25.6 25.6 0 1 1 0 51.2H332.8a25.6 25.6 0 0 1 0-51.2z" fill="#0B77FF" /><path d="M230.4 665.6a25.6 25.6 0 0 1 25.6-25.6h486.4a25.6 25.6 0 0 1 25.6 25.6v76.8a25.6 25.6 0 0 1-25.6 25.6H256a25.6 25.6 0 0 1-25.6-25.6v-76.8z" fill="#6CB0FF" /><path d="M332.8 563.2m12.8 0l230.4 0q12.8 0 12.8 12.8l0 0q0 12.8-12.8 12.8l-230.4 0q-12.8 0-12.8-12.8l0 0q0-12.8 12.8-12.8Z" fill="#FFFFFF" /><path d="M614.4 563.2m12.8 0l0 0q12.8 0 12.8 12.8l0 0q0 12.8-12.8 12.8l0 0q-12.8 0-12.8-12.8l0 0q0-12.8 12.8-12.8Z" fill="#FFFFFF" /></svg>