<?xml version="1.0" standalone="no"?><!DOCTYPE svg PUBLIC "-//W3C//DTD SVG 1.1//EN" "http://www.w3.org/Graphics/SVG/1.1/DTD/svg11.dtd"><svg class="icon" width="16px" height="16.00px" viewBox="0 0 1024 1024" version="1.1" xmlns="http://www.w3.org/2000/svg"><path d="M51.2 0h716.8a256 256 0 0 1 256 256v716.8a51.2 51.2 0 0 1-51.2 51.2H256A256 256 0 0 1 0 768V51.2a51.2 51.2 0 0 1 51.2-51.2z" fill="#30C6F5" /><path d="M366.272 70.2464l545.5872 314.9952-153.8304 266.4576-545.5872-315.008z" fill="#FFFFFF" /><path d="M272.7936 858.2528l-60.3648-525.4528 545.5872 314.9952z" fill="#FFFFFF" /><path d="M475.968 489.9584l36.8768 23.9616-212.48 349.2992-63.936-4.4928z" fill="#30C6F5" /><path d="M503.936 480m-96 0a96 96 0 1 0 192 0 96 96 0 1 0-192 0Z" fill="#30C6F5" /><path d="M413.9136 81.3696c34.3296 34.3424-6.6304 94.4128-84.5056 172.288s-168.832 113.1648-203.1488 78.848 0.96-125.2864 78.8352-203.1616c35.2896-35.2896 93.1584-31.1168 130.8672-47.9616a137.2032 137.2032 0 0 0 31.6032-16.8448c6.0672-4.1728 37.9008 8.3968 46.3488 16.8448z" fill="#30C6F5" /><path d="M985.28 372.2112c15.7696 9.472-17.3696-16.768-16.4608 13.2864 1.2288 38.7072-37.7984 121.1776-73.024 179.8016-56.704 94.3616-74.304 173.7472-115.9168 148.736s-29.376-121.7792 27.3536-216.1792 136.4352-150.656 178.048-125.6448z" fill="#30C6F5" /></svg>