<?xml version="1.0" standalone="no"?><!DOCTYPE svg PUBLIC "-//W3C//DTD SVG 1.1//EN" "http://www.w3.org/Graphics/SVG/1.1/DTD/svg11.dtd"><svg class="icon" width="20px" height="20.00px" viewBox="0 0 1024 1024" version="1.1" xmlns="http://www.w3.org/2000/svg"><path fill="#03c3ec" d="M725.333333 298.666667h170.666667a42.666667 42.666667 0 0 1 42.666667 42.666666v469.333334a42.666667 42.666667 0 0 1-85.333334 0V384H298.666667v298.666667a42.666667 42.666667 0 0 1-85.333334 0V384H170.666667v384h554.666666v-298.666667a42.666667 42.666667 0 0 1 85.333334 0v341.333334a42.666667 42.666667 0 0 1-42.666667 42.666666H128a42.666667 42.666667 0 0 1-42.666667-42.666666V341.333333a42.666667 42.666667 0 0 1 42.666667-42.666666h170.666667V213.333333a42.666667 42.666667 0 0 1 42.666666-42.666666h341.333334a42.666667 42.666667 0 0 1 42.666666 42.666666v85.333334zM384 256v42.666667h256V256H384z" /></svg>