<?xml version="1.0" standalone="no"?><!DOCTYPE svg PUBLIC "-//W3C//DTD SVG 1.1//EN" "http://www.w3.org/Graphics/SVG/1.1/DTD/svg11.dtd"><svg class="icon" width="16px" height="16.00px" viewBox="0 0 1024 1024" version="1.1" xmlns="http://www.w3.org/2000/svg"><path d="M963.490909 493.381818c0 251.345455-204.8 456.145455-456.145454 456.145455s-456.145455-204.8-456.145455-456.145455 204.8-456.145455 456.145455-456.145454c251.345455-4.654545 456.145455 204.8 456.145454 456.145454" fill="#FAFAFA" /><path d="M507.345455 32.581818c-256 0-460.8 204.8-460.8 456.145455v37.236363h456.145454v-493.381818z" fill="#233CAF" /><path d="M377.018182 237.381818l-4.654546 18.618182 13.963637-9.309091 13.963636 9.309091-4.654545-18.618182 13.963636-13.963636-18.618182-4.654546-9.309091-13.963636-9.309091 13.963636-18.618181 4.654546 23.272727 13.963636z m18.618182-111.709091l-9.309091-13.963636-9.309091 13.963636-18.618182 4.654546 13.963636 13.963636-4.654545 18.618182 13.963636-9.309091 13.963637 9.309091-4.654546-18.618182 13.963637-13.963636-9.309091-4.654546z m-288.581819 349.090909l-9.30909-13.963636-9.309091 13.963636-18.618182 4.654546 13.963636 13.963636-4.654545 18.618182 13.963636-9.309091 13.963636 9.309091-4.654545-18.618182 13.963636-13.963636-9.309091-4.654546z m-51.2-37.236363l13.963637-13.963637h-13.963637c0 9.309091-4.654545 18.618182-4.654545 27.927273l9.309091 4.654546-4.654546-18.618182z m321.163637-97.745455l-4.654546 18.618182 13.963637-9.309091 13.963636 9.309091-4.654545-18.618182 13.963636-13.963636-18.618182-4.654546-9.309091-13.963636-9.309091 13.963636-18.618181 4.654546 23.272727 13.963636z m-265.309091-32.581818l-4.654546-18.618182 13.963637-13.963636-18.618182-4.654546v-4.654545c-4.654545 9.309091-9.309091 18.618182-13.963636 32.581818l9.309091-4.654545 13.963636 13.963636z m-4.654546 65.163636l-9.30909-13.963636-9.309091 13.963636-18.618182 4.654546 13.963636 13.963636-4.654545 18.618182 13.963636-9.309091 13.963636 9.309091-4.654545-18.618182 13.963636-13.963636-9.309091-4.654546z m269.963637 65.163637l-4.654546 18.618182 13.963637-9.309091 13.963636 9.309091-4.654545-18.618182 13.963636-13.963637-18.618182-4.654545-9.309091-13.963636-9.309091 13.963636-18.618181 4.654545 23.272727 13.963637z m65.163636-377.018182l-9.309091 13.963636-18.618182 4.654546 13.963637 13.963636-4.654546 18.618182 13.963637-9.309091 13.963636 9.309091-4.654545-18.618182 13.963636-13.963636-18.618182-4.654546v-13.963636z m-121.018182 13.963636h-4.654545c-4.654545 0-4.654545 0-9.309091 4.654546l9.309091 9.309091-4.654546 18.618181 13.963637-9.30909 13.963636 9.30909-4.654545-18.618181 13.963636-13.963637-18.618182-4.654545-4.654545-9.309091c4.654545 9.309091 0 9.309091-4.654546 13.963636z m111.709091 414.254546l-4.654545 18.618182 13.963636-9.309091 13.963637 9.309091-4.654546-18.618182 13.963636-13.963637-18.618181-4.654545-9.309091-13.963636-9.309091 13.963636-18.618182 4.654545 23.272727 13.963637z m0-102.4l-4.654545 18.618182 13.963636-9.309091 13.963637 9.309091-4.654546-18.618182 13.963636-13.963637-18.618181-4.654545-9.309091-13.963636-9.309091 13.963636-18.618182 4.654545 23.272727 13.963637z m18.618182-209.454546l-9.309091-13.963636-9.309091 13.963636-18.618182 4.654546 13.963637 13.963636-4.654546 18.618182 13.963637-9.309091 13.963636 9.309091-4.654545-18.618182 13.963636-13.963636-9.309091-4.654546z m-18.618182 111.709091l-4.654545 18.618182 13.963636-9.309091 13.963637 9.309091-4.654546-18.618182 13.963636-13.963636-18.618181-4.654546-9.309091-13.963636-9.309091 13.963636-18.618182 4.654546 23.272727 13.963636z m-269.963636-65.163636l-9.309091-13.963637-9.309091 13.963637-18.618182 4.654545 13.963637 13.963637-4.654546 18.618181 13.963637-9.30909 13.963636 9.30909-4.654546-18.618181 13.963637-13.963637-9.309091-4.654545z m116.363636 200.145454l-9.309091-13.963636-9.309091 13.963636-18.618181 4.654546 13.963636 13.963636-4.654545 18.618182 13.963636-9.309091 13.963636 9.309091-4.654545-18.618182 13.963636-13.963636-9.309091-4.654546z m0-97.745454l-9.309091-13.963637-9.309091 13.963637-18.618181 4.654545 13.963636 13.963637-4.654545 18.618181 13.963636-9.30909 13.963636 9.30909-4.654545-18.618181 13.963636-13.963637-9.309091-4.654545z m55.854546-51.2l-9.309091-13.963637-9.309091 13.963637-18.618182 4.654545 13.963636 13.963637-4.654545 18.618181 13.963636-9.30909 13.963637 9.30909-4.654546-18.618181 13.963637-13.963637-9.309091-4.654545z m-172.218182 148.945454l-9.309091-13.963636-9.309091 13.963636-18.618182 4.654546 13.963637 13.963636-4.654546 18.618182 13.963637-9.309091 13.963636 9.309091-4.654546-18.618182 13.963637-13.963636-9.309091-4.654546z m172.218182-51.2l-9.309091-13.963636-9.309091 13.963636-18.618182 4.654546 13.963636 13.963636-4.654545 18.618182 13.963636-9.309091 13.963637 9.309091-4.654546-18.618182 13.963637-13.963636-9.309091-4.654546z m0 102.4l-9.309091-13.963636-9.309091 13.963636-18.618182 4.654546 13.963636 13.963636-4.654545 18.618182 13.963636-9.309091 13.963637 9.309091-4.654546-18.618182 13.963637-13.963636-9.309091-4.654546z m0-297.890909l-9.309091-13.963636-9.309091 13.963636-18.618182 4.654546 13.963636 13.963636-4.654545 18.618182 13.963636-9.309091 13.963637 9.309091-4.654546-18.618182 13.963637-13.963636-9.309091-4.654546z m-116.363637 0l-9.309091-13.963636-9.30909 13.963636-18.618182 4.654546 13.963636 13.963636-4.654545 18.618182 13.963636-9.309091 13.963636 9.309091-4.654545-18.618182 13.963636-13.963636-9.309091-4.654546z m-55.854545 148.945455l-9.309091-13.963637-9.309091 13.963637-18.618182 4.654545 13.963637 13.963637-4.654546 18.618181 13.963637-9.30909 13.963636 9.30909-4.654546-18.618181 13.963637-13.963637-9.309091-4.654545z m55.854545-51.2l-9.309091-13.963637-9.30909 13.963637-18.618182 4.654545 13.963636 13.963637-4.654545 18.618181 13.963636-9.30909 13.963636 9.30909-4.654545-18.618181 13.963636-13.963637-9.309091-4.654545z m0 97.745454l-9.309091-13.963636-9.30909 13.963636-18.618182 4.654546 13.963636 13.963636-4.654545 18.618182 13.963636-9.309091 13.963636 9.309091-4.654545-18.618182 13.963636-13.963636-9.309091-4.654546z m60.509091-246.690909l-9.309091-13.963636-9.309091 13.963636-18.618181 4.654546 13.963636 13.963636-4.654545 18.618182 13.963636-9.309091 13.963636 9.309091-4.654545-18.618182 13.963636-13.963636-9.309091-4.654546z m0 97.745455l-9.309091-13.963637-9.309091 13.963637-18.618181 4.654545 13.963636 13.963637-4.654545 18.618181 13.963636-9.30909 13.963636 9.30909-4.654545-18.618181 13.963636-13.963637-9.309091-4.654545z m-41.890909 251.345454l-13.963636 13.963637 4.654545 18.618182-13.963636-9.309091-13.963636 9.309091 4.654545-18.618182-13.963636-13.963637 18.618181-4.654545 9.309091-13.963636 9.309091 13.963636 9.309091 4.654545z" fill="#FAFAFA" /><path d="M176.872727 809.890909h660.945455c23.272727-23.272727 41.890909-46.545455 55.854545-74.472727h-772.654545c13.963636 27.927273 32.581818 51.2 55.854545 74.472727z m325.818182 139.636364c93.090909 0 176.872727-27.927273 246.690909-74.472728h-493.381818c74.472727 46.545455 158.254545 74.472727 246.690909 74.472728z m456.145455-493.381818h-456.145455v74.472727h456.145455v-37.236364c4.654545-13.963636 4.654545-23.272727 0-37.236363z m-875.054546 214.10909h847.127273c9.309091-23.272727 18.618182-46.545455 23.272727-74.472727h-893.672727c4.654545 27.927273 13.963636 51.2 23.272727 74.472727z m423.563637-423.563636h386.327272c-18.618182-27.927273-37.236364-51.2-55.854545-74.472727h-330.472727v74.472727z m0 139.636364h446.836363c-4.654545-23.272727-13.963636-51.2-23.272727-74.472728h-423.563636v74.472728z m0-279.272728h246.690909c-69.818182-46.545455-153.6-74.472727-246.690909-74.472727v74.472727z m-4.654546-74.472727z" fill="#EB0000" /></svg>