<?xml version="1.0" standalone="no"?><!DOCTYPE svg PUBLIC "-//W3C//DTD SVG 1.1//EN" "http://www.w3.org/Graphics/SVG/1.1/DTD/svg11.dtd"><svg class="icon" width="16px" height="9.99px" viewBox="0 0 1640 1024" version="1.1" xmlns="http://www.w3.org/2000/svg"><path d="M2.461292 0H1640.861292v1024H2.461292z" fill="#FFFFFF" /><path d="M0 872.835653h1640.861292v151.11307H0z" fill="#FCB315" /><path d="M0 0h1640.861292v151.11307H0z" fill="#0D357F" /><path d="M807.765248 304.738708l-86.093941 415.343015h-104.143415l86.093941-415.343015z m438.058688 268.178267l54.815022-155.984376 31.535303 155.984376z m116.244767 147.164748h96.24677l-84.094141-415.343015h-88.811617a47.37987 47.37987 0 0 0-44.354532 30.458488l-156.240761 384.884527h109.424937l21.690135-62.045068h133.31998z m-271.767651-135.627442c0.461492-109.630045-146.857086-115.680721-145.831548-164.650175 0.307661-14.870305 14.049875-30.766149 44.149424-34.817025a191.160341 191.160341 0 0 1 102.553831 18.61352l18.254582-88.093741a273.152128 273.152128 0 0 0-97.426139-18.357135c-102.912769 0-175.367051 56.404607-175.931097 137.268302-0.6666 59.788883 51.738408 93.118878 91.119079 112.809214 40.611317 20.510766 54.1997 33.432549 53.994592 51.584577-0.256385 27.843365-32.407011 40.201102-62.250176 40.662594a212.337707 212.337707 0 0 1-106.963645-26.253781l-18.921182 91.067802a307.661492 307.661492 0 0 0 115.731998 22.049073c109.578768 0.307661 181.161342-55.276515 181.469004-141.831948z m-431.238859-279.76685l-168.701051 415.343015H380.320881L297.303555 388.525188a45.533901 45.533901 0 0 0-24.715473-36.509164 426.470105 426.470105 0 0 0-102.553831-35.329795l2.461292-12.050075h177.161743a49.020731 49.020731 0 0 1 48.04647 42.303455l43.841762 240.38618 108.296846-282.689635z" fill="#0D357F" /></svg>