<?xml version="1.0" standalone="no"?><!DOCTYPE svg PUBLIC "-//W3C//DTD SVG 1.1//EN" "http://www.w3.org/Graphics/SVG/1.1/DTD/svg11.dtd"><svg class="icon" width="16px" height="16.00px" viewBox="0 0 1024 1024" version="1.1" xmlns="http://www.w3.org/2000/svg"><path d="M0 0m228.968944 0l566.062112 0q228.968944 0 228.968944 228.968944l0 566.062112q0 228.968944-228.968944 228.968944l-566.062112 0q-228.968944 0-228.968944-228.968944l0-566.062112q0-228.968944 228.968944-228.968944Z" fill="#FFC101" /><path d="M309.108075 226.424845m38.16149 0l329.46087 0q38.161491 0 38.16149 38.16149l0 493.55528q0 38.161491-38.16149 38.161491l-329.46087 0q-38.161491 0-38.16149-38.161491l0-493.55528q0-38.161491 38.16149-38.16149Z" fill="#FFFFFF" /><path d="M351.085714 273.490683m15.264597 0l291.299378 0q15.264596 0 15.264597 15.264597l0 361.262111q0 15.264596-15.264597 15.264597l-291.299378 0q-15.264596 0-15.264597-15.264597l0-361.262111q0-15.264596 15.264597-15.264597Z" fill="#FFC101" opacity=".5" /><path d="M512.636025 730.156522m-35.617391 0a35.617391 35.617391 0 1 0 71.234782 0 35.617391 35.617391 0 1 0-71.234782 0Z" fill="#FFC101" /></svg>