<?xml version="1.0" standalone="no"?><!DOCTYPE svg PUBLIC "-//W3C//DTD SVG 1.1//EN" "http://www.w3.org/Graphics/SVG/1.1/DTD/svg11.dtd"><svg class="icon" width="16px" height="16.00px" viewBox="0 0 1024 1024" version="1.1" xmlns="http://www.w3.org/2000/svg"><path fill="#667685" d="M490.7 100.8c115.8 0 209.6 92.3 209.6 206.2 0 113.9-93.9 206.2-209.6 206.2S281.1 420.9 281.1 307c0-113.9 93.9-206.2 209.6-206.2z m0 0c115.8 0 209.6 92.3 209.6 206.2 0 113.9-93.9 206.2-209.6 206.2S281.1 420.9 281.1 307c0-113.9 93.9-206.2 209.6-206.2zM412.1 582h174.7c149.6 0 270.8 119.2 270.8 266.3v17.2c0 58-121.2 60.2-270.8 60.2H412.1c-149.6 0-270.8-0.1-270.8-60.2v-17.2c0-147.1 121.2-266.3 270.8-266.3z m0 0" /></svg>