<?xml version="1.0" standalone="no"?><!DOCTYPE svg PUBLIC "-//W3C//DTD SVG 1.1//EN" "http://www.w3.org/Graphics/SVG/1.1/DTD/svg11.dtd"><svg class="icon" width="16px" height="16.00px" viewBox="0 0 1024 1024" version="1.1" xmlns="http://www.w3.org/2000/svg"><path d="M0 0m228.968944 0l566.062112 0q228.968944 0 228.968944 228.968944l0 566.062112q0 228.968944-228.968944 228.968944l-566.062112 0q-228.968944 0-228.968944-228.968944l0-566.062112q0-228.968944 228.968944-228.968944Z" fill="#FF9F5D" /><path d="M717.465282 735.273978m-44.521739 0a44.521739 44.521739 0 1 0 89.043478 0 44.521739 44.521739 0 1 0-89.043478 0Z" fill="#FFFFFF" /><path d="M375.662986 548.320835l55.612741 57.702718-153.612721 161.021138c-7.491101 7.852363-20.01443 7.884164-27.544964 0.069962l-42.117565-43.701267c-7.531806-7.814201-7.038251-20.327354 1.085058-27.523339l166.577451-147.569212z" fill="#FFFFFF" opacity=".5" /><path d="M512.002544 472.569004m-176.987208-183.640877a255.045963 255.045963 0 1 0 353.974416 367.281753 255.045963 255.045963 0 1 0-353.974416-367.281753Z" fill="#FFFFFF" /></svg>