<?xml version="1.0" standalone="no"?><!DOCTYPE svg PUBLIC "-//W3C//DTD SVG 1.1//EN" "http://www.w3.org/Graphics/SVG/1.1/DTD/svg11.dtd"><svg class="icon" width="16px" height="16.00px" viewBox="0 0 1024 1024" version="1.1" xmlns="http://www.w3.org/2000/svg"><path fill="#d81e06" d="M309.646 432.583l-183.21 483.044 483.043-183.211-299.804-299.833z m402.262 321.82l-683.52 259.243 259.27-683.52 424.25 424.278z m24.86-529.891l40.22 40.249-241.38 241.351-40.22-40.22zM626.091 596.651l-39.083-41.359c85.532-80.782 179.655-95.687 275.484-42.58l-27.59 49.777c-73.501-40.733-140.8-30.066-208.811 34.162zM391.623 362.183l41.358 39.054c80.783-85.504 95.687-179.626 42.553-275.456l-49.75 27.591c40.733 73.472 30.067 140.8-34.16 208.811z m411.648-158.777l-47.075-23.239 45.34-26.453 23.24-47.104 26.452 45.34 47.104 23.268-45.34 26.453-23.24 47.076z m79.758 438.016l-46.421-24.69 46.421-24.69 24.69-46.42 24.69 46.42 46.421 24.69-46.421 24.69-24.69 46.422zM341.305 97.052l-47.758-23.38 47.758-23.354L364.658 2.56l23.353 47.758 47.758 23.353-47.758 23.381-23.353 47.73z"  /><path fill="#d81e06" d="M267.634 413.27l56.69 4.664-39.424 480-56.69-4.665z m128.938 101.859l56.86 2.076-11.576 315.535-56.86-2.105z"  /></svg>